<svg width="128" height="128" viewBox="0 0 128 128" fill="none" xmlns="http://www.w3.org/2000/svg">
<path d="M109.054 65.9545H35.2537C31.3877 65.9545 28.2537 69.0885 28.2537 72.9545V83.2817C28.2537 87.1477 31.3877 90.2817 35.2537 90.2817H109.251C110.376 90.2817 111.041 89.3913 111.281 88.668C111.524 87.9396 111.516 86.8855 110.774 86.1633C108.945 84.3813 107.036 81.6506 107.036 78.0152C107.036 74.4969 108.824 71.884 110.594 70.1562C111.344 69.4241 111.341 68.346 111.102 67.6119C110.865 66.8865 110.203 65.9545 109.054 65.9545Z" fill="white" stroke="#EF5B62" stroke-width="2" stroke-linecap="round" stroke-linejoin="round"/>
<path d="M71.2809 30.8365C71.2809 36.6018 67.0036 43.3633 58.4491 43.3633C49.8947 43.3633 45.6174 36.6018 45.6174 30.8365C45.6174 24.6209 49.6681 23.2719 54.0586 23.403C55.8605 23.4568 58.4491 24.8286 58.4491 24.8286C58.4491 24.8286 61.0378 23.4568 62.8397 23.403C67.2302 23.2719 71.2809 24.573 71.2809 30.8365Z" fill="#EF5B62" stroke="#EF5B62" stroke-width="2" stroke-linecap="round" stroke-linejoin="round"/>
<path d="M62.2452 39.6206C63.5819 39.1038 66.5011 37.0757 67.4849 33.0979" stroke="#EF5B62" stroke-width="2" stroke-linecap="round" stroke-linejoin="round"/>
<path d="M58.7805 24.4117C56.1439 24.4366 53.7326 22.6485 53.0959 17.5475C55.6079 18.5266 59.699 18.0679 58.7805 24.4117Z" fill="#EF5B62" stroke="#EF5B62" stroke-width="2" stroke-linecap="round" stroke-linejoin="round"/>
<path d="M58.8234 24.3297C59.9996 22.8594 61.764 18.3149 60.2402 15" stroke="#EF5B62" stroke-width="2" stroke-linecap="round" stroke-linejoin="round"/>
<path d="M51.3924 32.5466C50.8435 31.518 50.6886 29.8212 51.249 28.5166" stroke="#EF5B62" stroke-width="2" stroke-linecap="round" stroke-linejoin="round"/>
<path d="M100.203 45.3227C100.204 45.3226 100.204 45.3225 100.204 45.3224L100.204 45.322C100.205 45.322 100.205 45.322 100.205 45.3219C100.576 45.0813 100.745 44.6247 100.62 44.1999C100.495 43.7746 100.104 43.4826 99.6611 43.4826H28.1327C24.2667 43.4826 21.1327 46.6166 21.1327 50.4826V59.0989C21.1327 62.9649 24.2667 66.0989 28.1327 66.0989H99.6611C100.121 66.0989 100.521 65.7855 100.632 65.3392C100.742 64.8931 100.534 64.4292 100.128 64.2147L100.127 64.2143L100.12 64.2103C100.111 64.2056 100.097 64.1975 100.076 64.1861C100.036 64.1633 99.9729 64.1271 99.891 64.0778C99.7272 63.979 99.4884 63.8278 99.2009 63.625C98.6242 63.2181 97.8623 62.6105 97.1203 61.8103C95.6338 60.2072 94.2856 57.901 94.5418 54.8993C94.8076 51.785 96.2173 49.3901 97.5859 47.757C98.2692 46.9417 98.9352 46.3251 99.4272 45.9146C99.6728 45.7097 99.8737 45.5573 100.01 45.4581C100.078 45.4086 100.13 45.3725 100.163 45.3498C100.18 45.3385 100.192 45.3306 100.198 45.3261L100.203 45.3227Z" fill="#EF5B62" stroke="#EF5B62" stroke-width="2" stroke-linecap="round" stroke-linejoin="round"/>
<path d="M102.573 65.8196C102.903 64.4861 102.285 63.0996 101.075 62.453L101.298 46.9969C101.299 46.9961 101.3 46.9952 101.301 46.9944C102.41 46.2707 102.913 44.9054 102.539 43.6345C102.163 42.3585 100.991 41.4826 99.6611 41.4826H28.1327C23.1621 41.4826 19.1327 45.512 19.1327 50.4826V59.0989C19.1327 64.0695 23.1621 68.0989 28.1327 68.0989H99.6611C101.04 68.0989 102.242 67.1585 102.573 65.8196ZM100.708 47.4503C100.917 47.2765 101.082 47.1512 101.186 47.0757L101.07 62.4501L101.057 62.4429C101.033 62.4294 100.987 62.4034 100.924 62.3651L100.913 62.3823L100.924 62.3651C100.796 62.2881 100.598 62.163 100.354 61.9909C99.8605 61.6427 99.2118 61.1245 98.5868 60.4505C97.3305 59.0956 96.3425 57.3192 96.5345 55.0693C96.7553 52.4828 97.9267 50.4641 99.1188 49.0417C99.7117 48.3342 100.289 47.8002 100.708 47.4503ZM28.1327 45.4826H96.9513C96.8513 45.5844 96.7498 45.6904 96.647 45.8006C94.9558 47.6146 92.9001 50.6158 92.549 54.7292C92.1882 58.9563 94.3971 62.0137 96.2989 63.8234C96.3987 63.9184 96.498 64.0102 96.5963 64.0989H28.1327C25.3713 64.0989 23.1327 61.8604 23.1327 59.0989V50.4826C23.1327 47.7211 25.3713 45.4826 28.1327 45.4826Z" fill="white" stroke="#EF5B62" stroke-width="2" stroke-linecap="round" stroke-linejoin="round"/>
<path d="M95.0585 91.9851C95.0587 91.985 95.059 91.9848 95.0592 91.9847L95.0593 91.9846L95.0598 91.9843C95.0599 91.9842 95.06 91.9842 95.0601 91.9841C95.0603 91.984 95.0605 91.9839 95.0607 91.9838C95.0608 91.9837 95.0609 91.9836 95.061 91.9836C95.4375 91.7466 95.6124 91.2893 95.4896 90.8615C95.3666 90.4327 94.9745 90.1372 94.5284 90.1372H23C19.134 90.1372 16 93.2712 16 97.1372V105.754C16 109.62 19.134 112.754 23 112.754H94.5284C94.9909 112.754 95.3931 112.436 95.5008 111.987C95.6085 111.537 95.3944 111.073 94.9831 110.863C94.983 110.863 94.983 110.863 94.9829 110.863C94.9827 110.863 94.9825 110.863 94.9824 110.863C94.9821 110.862 94.9819 110.862 94.9817 110.862L94.9751 110.859C94.9668 110.854 94.9524 110.847 94.9325 110.836C94.8927 110.814 94.8307 110.78 94.7499 110.732C94.5881 110.637 94.3519 110.49 94.0682 110.292C93.499 109.895 92.7495 109.297 92.0274 108.501C90.5872 106.912 89.2904 104.578 89.6634 101.432C90.0538 98.1397 91.421 95.7689 92.6867 94.2199C93.3205 93.4441 93.928 92.8759 94.3716 92.5053C94.5931 92.3202 94.7729 92.1851 94.8935 92.0987C94.9537 92.0555 94.9991 92.0245 95.0273 92.0057C95.0415 91.9962 95.0513 91.9898 95.0566 91.9864L95.0585 91.9851Z" fill="#EF5B62" stroke="#EF5B62" stroke-width="2" stroke-linecap="round" stroke-linejoin="round"/>
<mask id="path-10-outside-1_7_232" maskUnits="userSpaceOnUse" x="13" y="87.1372" width="86" height="29" fill="black">
<rect fill="white" x="13" y="87.1372" width="86" height="29"/>
<path fill-rule="evenodd" clip-rule="evenodd" d="M95.5936 92.8299C95.5934 92.8301 95.5938 92.8298 95.5936 92.8299C95.5925 92.8306 95.5914 92.8313 95.5903 92.832C95.5902 92.832 95.5903 92.832 95.5903 92.832M92.2954 93.1372C93.4994 91.7806 94.5284 91.1372 94.5284 91.1372H23C19.6863 91.1372 17 93.8235 17 97.1372V105.754C17 109.067 19.6863 111.754 23 111.754H94.5284C94.5284 111.754 93.2303 111.093 91.8487 109.754C90.0935 108.051 88.2035 105.251 88.6704 101.314C89.1271 97.4625 90.8392 94.7781 92.2954 93.1372ZM95.4364 109.972C95.4384 109.973 95.4403 109.974 95.4423 109.975C95.4432 109.975 95.443 109.975 95.4423 109.975C96.262 110.396 96.6882 111.323 96.4733 112.22C96.2577 113.119 95.4534 113.754 94.5284 113.754H23C18.5817 113.754 15 110.172 15 105.754V97.1372C15 92.7189 18.5817 89.1372 23 89.1372H94.5284C95.4205 89.1372 96.2048 89.7281 96.4508 90.5857C96.6958 91.4394 96.3483 92.3519 95.5988 92.8267C95.5972 92.8276 95.5951 92.829 95.5936 92.8299M95.441 109.974C95.437 109.972 95.4271 109.967 95.4117 109.958C95.3808 109.941 95.3283 109.912 95.2573 109.87C95.1151 109.786 94.9009 109.654 94.6408 109.472C94.1167 109.106 93.4282 108.557 92.7682 107.829C91.4567 106.383 90.3275 104.324 90.6565 101.55C91.0201 98.4834 92.2898 96.286 93.461 94.8526C94.0487 94.1334 94.6096 93.6095 95.0128 93.2727C95.2138 93.1047 95.3739 92.9847 95.476 92.9115C95.527 92.8749 95.5634 92.8502 95.5829 92.8371L95.5936 92.8299L95.5915 92.8312L95.5903 92.832M95.441 109.974L95.4399 109.973L95.4377 109.972"/>
</mask>
<path fill-rule="evenodd" clip-rule="evenodd" d="M95.5936 92.8299C95.5934 92.8301 95.5938 92.8298 95.5936 92.8299C95.5925 92.8306 95.5914 92.8313 95.5903 92.832C95.5902 92.832 95.5903 92.832 95.5903 92.832M92.2954 93.1372C93.4994 91.7806 94.5284 91.1372 94.5284 91.1372H23C19.6863 91.1372 17 93.8235 17 97.1372V105.754C17 109.067 19.6863 111.754 23 111.754H94.5284C94.5284 111.754 93.2303 111.093 91.8487 109.754C90.0935 108.051 88.2035 105.251 88.6704 101.314C89.1271 97.4625 90.8392 94.7781 92.2954 93.1372ZM95.4364 109.972C95.4384 109.973 95.4403 109.974 95.4423 109.975C95.4432 109.975 95.443 109.975 95.4423 109.975C96.262 110.396 96.6882 111.323 96.4733 112.22C96.2577 113.119 95.4534 113.754 94.5284 113.754H23C18.5817 113.754 15 110.172 15 105.754V97.1372C15 92.7189 18.5817 89.1372 23 89.1372H94.5284C95.4205 89.1372 96.2048 89.7281 96.4508 90.5857C96.6958 91.4394 96.3483 92.3519 95.5988 92.8267C95.5972 92.8276 95.5951 92.829 95.5936 92.8299M95.441 109.974C95.437 109.972 95.4271 109.967 95.4117 109.958C95.3808 109.941 95.3283 109.912 95.2573 109.87C95.1151 109.786 94.9009 109.654 94.6408 109.472C94.1167 109.106 93.4282 108.557 92.7682 107.829C91.4567 106.383 90.3275 104.324 90.6565 101.55C91.0201 98.4834 92.2898 96.286 93.461 94.8526C94.0487 94.1334 94.6096 93.6095 95.0128 93.2727C95.2138 93.1047 95.3739 92.9847 95.476 92.9115C95.527 92.8749 95.5634 92.8502 95.5829 92.8371L95.5936 92.8299L95.5915 92.8312L95.5903 92.832M95.441 109.974L95.4399 109.973L95.4377 109.972" fill="white"/>
<path d="M95.5936 92.8299L96.5935 92.8391C96.5969 92.4736 96.4005 92.1354 96.0815 91.957C95.7624 91.7787 95.3714 91.7887 95.0618 91.983L95.5936 92.8299ZM95.5903 92.832L95.0585 91.9851C94.7698 92.1664 94.5933 92.4824 94.5903 92.8233L95.5903 92.832ZM94.9766 110.86C95.4653 111.117 96.07 110.929 96.3272 110.44C96.5844 109.952 96.3967 109.347 95.9079 109.09L94.9766 110.86ZM94.4365 109.962C94.4314 110.515 94.875 110.966 95.4272 110.972C95.9795 110.977 96.4313 110.533 96.4364 109.981L94.4365 109.962ZM95.8903 109.081C95.3979 108.831 94.796 109.027 94.546 109.52C94.2961 110.012 94.4927 110.614 94.9851 110.864L95.8903 109.081ZM96.122 93.6789L96.1253 93.6768L95.0618 91.983L95.0585 91.9851L96.122 93.6789ZM94.9753 110.859L94.9766 110.86L95.9079 109.09L95.9067 109.089L94.9753 110.859ZM94.5936 92.8208L94.4365 109.962L96.4364 109.981L96.5935 92.8391L94.5936 92.8208ZM94.5903 92.8233L94.4411 109.965L96.441 109.983L96.5902 92.8407L94.5903 92.8233ZM94.9851 110.864L94.9884 110.866L95.8936 109.082L95.8903 109.081L94.9851 110.864ZM94.5284 91.1372L95.5886 92.833C96.3451 92.3601 96.6969 91.4433 96.4508 90.5857C96.2048 89.7281 95.4205 89.1372 94.5284 89.1372V91.1372ZM92.2954 93.1372L90.7995 91.8097L90.7995 91.8097L92.2954 93.1372ZM94.5284 111.754V113.754C95.4534 113.754 96.2577 113.119 96.4733 112.22C96.6889 111.32 96.2595 110.39 95.4349 109.971L94.5284 111.754ZM91.8487 109.754L93.2412 108.318L93.2412 108.318L91.8487 109.754ZM88.6704 101.314L90.6565 101.55L90.6565 101.55L88.6704 101.314ZM96.3462 108.19C95.3625 107.688 94.1578 108.078 93.6553 109.062C93.1529 110.046 93.543 111.25 94.5267 111.753L96.3462 108.19ZM95.441 109.974L94.5491 111.764C95.53 112.253 96.7214 111.861 97.221 110.886C97.7207 109.91 97.3424 108.715 96.3727 108.204L95.441 109.974ZM96.4733 112.22L98.4182 112.686L98.4182 112.686L96.4733 112.22ZM96.4508 90.5857L94.5284 91.1372L94.5284 91.1372L96.4508 90.5857ZM95.5988 92.8267L96.6687 94.5164L96.669 94.5162L95.5988 92.8267ZM95.4117 109.958L94.4534 111.714L94.4535 111.714L95.4117 109.958ZM95.2573 109.87L94.2424 111.594L94.2425 111.594L95.2573 109.87ZM94.6408 109.472L95.7858 107.832L95.7858 107.832L94.6408 109.472ZM92.7682 107.829L94.2499 106.486L94.2499 106.486L92.7682 107.829ZM90.6565 101.55L88.6704 101.314L88.6704 101.314L90.6565 101.55ZM93.461 94.8526L91.9123 93.5871L91.9123 93.5871L93.461 94.8526ZM95.0128 93.2727L96.2951 94.8075L96.2951 94.8075L95.0128 93.2727ZM95.476 92.9115L94.3109 91.2859L94.3109 91.2859L95.476 92.9115ZM95.5829 92.8371L96.6939 94.5002L96.7006 94.4957L95.5829 92.8371ZM95.5915 92.8312L96.6536 94.5259L96.6558 94.5245L95.5915 92.8312ZM95.4399 109.973L94.5282 111.754C94.5348 111.757 94.5414 111.76 94.548 111.764L95.4399 109.973ZM96.3494 108.192C95.3663 107.689 94.1611 108.077 93.6576 109.061C93.1541 110.044 93.5429 111.249 94.526 111.752L96.3494 108.192ZM96.6467 94.5302C96.6467 94.5302 96.6466 94.5303 96.6466 94.5303C96.6466 94.5303 96.6464 94.5304 96.6463 94.5305C96.6462 94.5305 96.6461 94.5306 96.6459 94.5307C96.6458 94.5307 96.6452 94.5312 96.6443 94.5317C96.6441 94.5318 96.6436 94.5321 96.643 94.5325C96.6427 94.5327 96.6412 94.5336 96.6392 94.5348C96.6387 94.5352 96.6374 94.5359 96.6367 94.5364C96.6358 94.5369 96.6334 94.5384 96.632 94.5392C96.6298 94.5406 96.6234 94.5444 96.6193 94.5469C96.6091 94.5529 96.5334 94.5954 96.4666 94.6293C93.8719 93.8475 94.4691 91.176 94.5003 91.1552C94.5079 91.1503 94.5189 91.1432 94.5223 91.1411C94.5242 91.1398 94.5274 91.1378 94.5286 91.137C94.5295 91.1365 94.531 91.1355 94.5317 91.1351C94.534 91.1337 94.5358 91.1326 94.5361 91.1324C94.5367 91.132 94.5372 91.1317 94.5375 91.1315C94.538 91.1312 94.5385 91.1309 94.5386 91.1308C94.539 91.1306 94.5393 91.1304 94.5394 91.1304C94.5395 91.1303 94.5396 91.1302 94.5396 91.1302C94.5398 91.1301 94.5399 91.13 94.5399 91.13C94.54 91.13 94.5401 91.1299 94.5401 91.1299C94.5401 91.1299 94.5402 91.1298 94.5403 91.1298C94.5403 91.1297 94.5404 91.1297 94.5405 91.1296C94.5406 91.1296 94.5407 91.1295 94.5408 91.1294C94.5409 91.1294 94.5412 91.1292 94.5416 91.129C94.5417 91.1289 94.5422 91.1286 94.5427 91.1283C94.543 91.1281 94.5435 91.1278 94.5441 91.1274C94.5444 91.1272 94.5463 91.1261 94.5486 91.1247C94.5492 91.1243 94.5508 91.1233 94.5517 91.1228C94.553 91.122 94.5563 91.12 94.5583 91.1188C94.5619 91.1166 94.5735 91.1096 94.5817 91.1048C94.618 91.084 97.2801 91.7551 96.7979 94.4267C96.746 94.4646 96.6835 94.5069 96.6741 94.513C96.6702 94.5155 96.6641 94.5193 96.6619 94.5207C96.6606 94.5216 96.6583 94.523 96.6573 94.5236C96.6566 94.524 96.6554 94.5248 96.6549 94.5251C96.653 94.5263 96.6514 94.5273 96.6511 94.5275C96.6505 94.5278 96.6501 94.5281 96.6498 94.5283C96.649 94.5288 96.6483 94.5292 96.6483 94.5292C96.6481 94.5294 96.6479 94.5294 96.6479 94.5295C96.6477 94.5296 96.6476 94.5297 96.6476 94.5297C96.6475 94.5297 96.6475 94.5297 96.6475 94.5297L94.5397 91.1301C94.5397 91.1301 94.5395 91.1303 94.5392 91.1304C94.5391 91.1305 94.539 91.1306 94.5388 91.1307C94.5388 91.1307 94.5381 91.1311 94.5373 91.1317C94.537 91.1318 94.5365 91.1321 94.5359 91.1325C94.5356 91.1327 94.5341 91.1336 94.5322 91.1348C94.5316 91.1352 94.5304 91.1359 94.5297 91.1363C94.5288 91.1369 94.5265 91.1384 94.5252 91.1392C94.523 91.1406 94.5169 91.1445 94.513 91.147C94.5036 91.1531 94.4411 91.1954 94.3892 91.2332C93.907 93.9049 96.5691 94.5759 96.6054 94.5551C96.6135 94.5503 96.6252 94.5433 96.6288 94.5412C96.6308 94.54 96.6341 94.538 96.6354 94.5372C96.6363 94.5366 96.6378 94.5357 96.6385 94.5353C96.6408 94.5338 96.6427 94.5327 96.6429 94.5325C96.6436 94.5321 96.6441 94.5318 96.6444 94.5317C96.6449 94.5313 96.6453 94.5311 96.6455 94.531C96.6459 94.5307 96.6462 94.5306 96.6462 94.5305C96.6464 94.5304 96.6465 94.5304 96.6465 94.5303C96.6467 94.5302 96.6468 94.5302 96.6468 94.5301C96.6469 94.5301 96.647 94.53 96.6471 94.53C96.6472 94.5299 96.6472 94.5299 96.6474 94.5298C96.6474 94.5298 96.6475 94.5297 96.6476 94.5296C96.6477 94.5296 96.6478 94.5295 96.6479 94.5295C96.648 94.5294 96.6483 94.5292 96.6487 94.529C96.6488 94.5289 96.6493 94.5286 96.6498 94.5283C96.6501 94.5281 96.6506 94.5278 96.6512 94.5274C96.6515 94.5272 96.6533 94.5261 96.6556 94.5247C96.6562 94.5243 96.6578 94.5233 96.6586 94.5228C96.6599 94.522 96.6631 94.52 96.665 94.5187C96.6684 94.5166 96.6794 94.5095 96.687 94.5046C96.7182 94.4838 97.3154 91.8123 94.7207 91.0305C94.6539 91.0644 94.5782 91.1069 94.568 91.1129C94.5639 91.1154 94.5575 91.1192 94.5553 91.1206C94.5539 91.1214 94.5515 91.1229 94.5506 91.1235C94.5499 91.1239 94.5486 91.1246 94.5481 91.125C94.5461 91.1262 94.5446 91.1271 94.5443 91.1273C94.5437 91.1277 94.5432 91.128 94.5429 91.1281C94.5421 91.1286 94.5414 91.1291 94.5414 91.1291C94.5412 91.1292 94.5411 91.1293 94.541 91.1293C94.5407 91.1295 94.5405 91.1296 94.5405 91.1297L96.6467 94.5302ZM96.6545 94.5254C96.654 94.5257 96.6533 94.5261 96.6546 94.5253C96.6553 94.5249 96.6574 94.5235 96.6599 94.522L94.5273 91.1379C94.5287 91.137 94.5297 91.1364 94.5293 91.1366C94.5292 91.1367 94.5292 91.1367 94.529 91.1368C94.5288 91.1369 94.5286 91.1371 94.5283 91.1372C94.5278 91.1376 94.527 91.1381 94.5261 91.1387L96.6545 94.5254ZM96.6366 94.5365C96.6366 94.5365 96.6366 94.5365 96.6366 94.5365C96.6366 94.5365 96.6366 94.5365 96.6366 94.5365C96.6366 94.5365 96.6366 94.5365 96.6366 94.5365C96.6366 94.5365 96.6366 94.5365 96.6366 94.5365C96.6366 94.5365 96.6366 94.5365 96.6366 94.5365C96.6366 94.5365 96.6366 94.5365 96.6366 94.5365C96.6366 94.5365 96.6366 94.5365 96.6366 94.5365C96.6366 94.5365 96.6366 94.5365 96.6366 94.5365C96.6366 94.5365 96.6366 94.5365 96.6366 94.5365C96.6366 94.5365 96.6366 94.5365 96.6366 94.5365C96.6366 94.5365 96.6366 94.5365 96.6366 94.5365C96.6366 94.5365 96.6366 94.5365 96.6366 94.5365C96.6366 94.5365 96.6366 94.5365 96.6366 94.5365C96.6366 94.5365 96.6366 94.5365 96.6366 94.5365C96.6366 94.5365 96.6366 94.5365 96.6366 94.5365C96.6366 94.5365 96.6366 94.5365 96.6366 94.5365C96.6366 94.5365 96.6366 94.5365 96.6366 94.5365C96.6366 94.5365 96.6366 94.5365 96.6366 94.5365C96.6366 94.5365 96.6366 94.5365 96.6366 94.5365C96.6366 94.5365 96.6366 94.5365 96.6366 94.5365C96.6366 94.5365 96.6366 94.5365 96.6366 94.5365C96.6366 94.5365 96.6366 94.5365 96.6366 94.5365C96.6366 94.5365 96.6366 94.5365 96.6366 94.5365C96.6366 94.5365 96.6366 94.5365 96.6366 94.5365C96.6366 94.5365 96.6366 94.5365 96.6366 94.5365C96.6366 94.5365 96.6366 94.5365 96.6366 94.5365C96.6366 94.5365 96.6366 94.5365 96.6366 94.5365C96.6366 94.5365 96.6366 94.5365 96.6366 94.5365C96.6366 94.5365 96.6366 94.5365 96.6366 94.5365C96.6366 94.5365 96.6366 94.5365 96.6366 94.5365C96.6366 94.5365 96.6366 94.5365 96.6366 94.5365C96.6366 94.5365 96.6366 94.5365 96.6366 94.5365C96.6366 94.5365 96.6366 94.5365 96.6366 94.5365C96.6366 94.5365 96.6366 94.5365 96.6366 94.5365C96.6366 94.5365 96.6366 94.5365 96.6366 94.5365C96.6366 94.5365 96.6366 94.5365 96.6366 94.5365C96.6366 94.5365 96.6366 94.5365 96.6366 94.5365C96.6366 94.5365 96.6366 94.5365 96.6366 94.5365C96.6366 94.5365 96.6366 94.5365 96.6366 94.5365C96.6366 94.5365 96.6366 94.5365 96.6366 94.5365C96.6366 94.5365 96.6366 94.5365 96.6366 94.5365C96.6366 94.5365 96.6366 94.5365 96.6366 94.5365C96.6366 94.5365 96.6366 94.5365 96.6366 94.5365C96.6366 94.5365 96.6366 94.5365 96.6366 94.5365C96.6366 94.5365 96.6366 94.5365 96.6366 94.5365C96.6366 94.5365 96.6366 94.5365 96.6366 94.5365C96.6366 94.5365 96.6366 94.5365 96.6366 94.5365C96.6366 94.5365 96.6366 94.5365 96.6366 94.5365C96.6366 94.5365 96.6366 94.5365 96.6366 94.5365C96.6366 94.5365 96.6366 94.5365 96.6366 94.5365C96.6366 94.5365 96.6366 94.5365 96.6366 94.5365C96.6366 94.5365 96.6366 94.5365 96.6366 94.5365C96.6366 94.5365 96.6366 94.5365 96.6366 94.5365C96.6366 94.5365 96.6366 94.5365 96.6366 94.5365C96.6366 94.5365 96.6366 94.5365 96.6366 94.5365C96.6366 94.5365 96.6366 94.5365 96.6366 94.5365C96.6366 94.5365 96.6366 94.5365 96.6366 94.5365C96.6366 94.5365 96.6366 94.5365 96.6366 94.5365C96.6366 94.5365 96.6366 94.5365 96.6366 94.5365C96.6366 94.5365 96.6366 94.5365 96.6366 94.5365C96.6366 94.5365 96.6366 94.5365 96.6366 94.5365C96.6366 94.5365 96.6366 94.5365 96.6366 94.5365C96.6366 94.5365 96.6366 94.5365 96.6366 94.5365C96.6366 94.5365 96.6366 94.5365 96.6366 94.5365C96.6366 94.5365 96.6366 94.5365 96.6366 94.5365C96.6366 94.5365 96.6366 94.5365 96.6366 94.5365C96.6366 94.5365 96.6366 94.5365 96.6366 94.5365C96.6366 94.5365 96.6366 94.5365 96.6366 94.5365C96.6366 94.5365 96.6366 94.5365 96.6366 94.5365C96.6366 94.5365 96.6366 94.5365 96.6366 94.5365C96.6366 94.5365 96.6366 94.5365 96.6366 94.5365C96.6366 94.5365 96.6366 94.5365 96.6366 94.5365C96.6366 94.5365 96.6366 94.5365 96.6366 94.5365C96.6366 94.5365 96.6366 94.5365 96.6366 94.5365C96.6366 94.5365 96.6366 94.5365 96.6366 94.5365C96.6366 94.5365 96.6366 94.5365 96.6366 94.5365C96.6366 94.5365 96.6366 94.5365 96.6366 94.5365C96.6366 94.5365 96.6366 94.5365 96.6366 94.5365C96.6366 94.5365 96.6366 94.5365 96.6366 94.5365C96.6366 94.5365 96.6366 94.5365 96.6366 94.5365C96.6366 94.5365 96.6366 94.5365 96.6366 94.5365C96.6366 94.5365 96.6366 94.5365 96.6366 94.5365C96.6366 94.5365 96.6366 94.5365 96.6366 94.5365C96.6366 94.5365 96.6366 94.5365 96.6366 94.5365C96.6366 94.5365 96.6366 94.5365 96.6366 94.5365C96.6366 94.5365 96.6366 94.5365 96.6366 94.5365C96.6366 94.5365 96.6366 94.5365 96.6366 94.5365C96.6366 94.5365 96.6366 94.5365 96.6366 94.5365C96.6366 94.5365 96.6366 94.5365 96.6366 94.5365C96.6366 94.5365 96.6366 94.5365 96.6366 94.5365C96.6366 94.5365 96.6366 94.5365 96.6366 94.5365C96.6366 94.5365 96.6366 94.5365 96.6366 94.5365C96.6366 94.5365 96.6366 94.5365 96.6366 94.5365C96.6366 94.5365 96.6366 94.5365 96.6366 94.5365C96.6366 94.5365 96.6366 94.5365 96.6366 94.5365C96.6366 94.5365 96.6366 94.5365 96.6366 94.5365C96.6366 94.5365 96.6366 94.5365 96.6366 94.5365C96.6366 94.5365 96.6366 94.5365 96.6366 94.5365C96.6366 94.5365 96.6366 94.5365 96.6366 94.5365C96.6366 94.5365 96.6366 94.5365 96.6366 94.5365C96.6366 94.5365 96.6366 94.5365 96.6366 94.5365C96.6366 94.5365 96.6366 94.5365 96.6366 94.5365C96.6366 94.5365 96.6366 94.5365 96.6366 94.5365C96.6366 94.5365 96.6366 94.5365 96.6366 94.5365C96.6366 94.5365 96.6366 94.5365 96.6366 94.5365C96.6366 94.5365 96.6366 94.5365 96.6366 94.5365C96.6366 94.5365 96.6366 94.5365 96.6366 94.5365C96.6366 94.5365 96.6366 94.5365 96.6366 94.5365C95.5903 90.832 94.544 91.1275 94.544 91.1275C94.544 91.1275 94.544 91.1275 94.544 91.1275C94.544 91.1275 94.544 91.1275 94.544 91.1275C94.544 91.1275 94.544 91.1275 94.544 91.1275C94.544 91.1275 94.544 91.1275 94.544 91.1275C94.544 91.1275 94.544 91.1275 94.544 91.1275C94.544 91.1275 94.544 91.1275 94.544 91.1275C94.544 91.1275 94.544 91.1275 94.544 91.1275C94.544 91.1275 94.544 91.1275 94.544 91.1275C94.544 91.1275 94.544 91.1275 94.544 91.1275C94.544 91.1275 94.544 91.1275 94.544 91.1275C94.544 91.1275 94.544 91.1275 94.544 91.1275C94.544 91.1275 94.544 91.1275 94.544 91.1275C94.544 91.1275 94.544 91.1275 94.544 91.1275C94.544 91.1275 94.544 91.1275 94.544 91.1275C94.544 91.1275 94.544 91.1275 94.544 91.1275C94.544 91.1275 94.544 91.1275 94.544 91.1275C94.544 91.1275 94.544 91.1275 94.544 91.1275C94.544 91.1275 94.544 91.1275 94.544 91.1275C94.544 91.1275 94.544 91.1275 94.544 91.1275C94.544 91.1275 94.544 91.1275 94.544 91.1275C94.544 91.1275 94.544 91.1275 94.544 91.1275C94.544 91.1275 94.544 91.1275 94.544 91.1275C94.544 91.1275 94.544 91.1275 94.544 91.1275C94.544 91.1275 94.544 91.1275 94.544 91.1275C94.544 91.1275 94.544 91.1275 94.544 91.1275C94.544 91.1275 94.544 91.1275 94.544 91.1275C94.544 91.1275 94.544 91.1275 94.544 91.1275C94.544 91.1275 94.544 91.1275 94.544 91.1275C94.544 91.1275 94.544 91.1275 94.544 91.1275C94.544 91.1275 94.544 91.1275 94.544 91.1275C94.544 91.1275 94.544 91.1275 94.544 91.1275C94.544 91.1275 94.544 91.1275 94.544 91.1275C94.544 91.1275 94.544 91.1275 94.544 91.1275C94.544 91.1275 94.544 91.1275 94.544 91.1275C94.544 91.1275 94.544 91.1275 94.544 91.1275C94.544 91.1275 94.544 91.1275 94.544 91.1275C94.544 91.1275 94.544 91.1275 94.544 91.1275C94.544 91.1275 94.544 91.1275 94.544 91.1275C94.544 91.1275 94.544 91.1275 94.544 91.1275C94.544 91.1275 94.544 91.1275 94.544 91.1275C94.544 91.1275 94.544 91.1275 94.544 91.1275C94.544 91.1275 94.544 91.1275 94.544 91.1275C94.544 91.1275 94.544 91.1275 94.544 91.1275C94.544 91.1275 94.544 91.1275 94.544 91.1275C94.544 91.1275 94.544 91.1275 94.544 91.1275C94.544 91.1275 94.544 91.1275 94.544 91.1275C94.544 91.1275 94.544 91.1275 94.544 91.1275C94.544 91.1275 94.544 91.1275 94.544 91.1275C94.544 91.1275 94.544 91.1275 94.544 91.1275C94.544 91.1275 94.544 91.1275 94.544 91.1275C94.544 91.1275 94.544 91.1275 94.544 91.1275C94.544 91.1275 94.544 91.1275 94.544 91.1275C94.544 91.1275 94.544 91.1275 94.544 91.1275C94.544 91.1275 94.544 91.1275 94.544 91.1275C94.544 91.1275 94.544 91.1275 94.544 91.1275C94.544 91.1275 94.544 91.1275 94.544 91.1275C94.544 91.1275 94.544 91.1275 94.544 91.1275C94.544 91.1275 94.544 91.1275 94.544 91.1275C94.544 91.1275 94.544 91.1275 94.544 91.1275C94.544 91.1275 94.544 91.1275 94.544 91.1275C94.544 91.1275 94.544 91.1275 94.544 91.1275C94.544 91.1275 94.544 91.1275 94.544 91.1275C94.544 91.1275 94.544 91.1275 94.544 91.1275C94.544 91.1275 94.544 91.1275 94.544 91.1275C94.544 91.1275 94.544 91.1275 94.544 91.1275C94.544 91.1275 94.544 91.1275 94.544 91.1275C94.544 91.1275 94.544 91.1275 94.544 91.1275C94.544 91.1275 94.544 91.1275 94.544 91.1275C94.544 91.1275 94.544 91.1275 94.544 91.1275C94.544 91.1275 94.544 91.1275 94.544 91.1275C94.544 91.1275 94.544 91.1275 94.544 91.1275C94.544 91.1275 94.544 91.1275 94.544 91.1275C94.544 91.1275 94.544 91.1275 94.544 91.1275C94.544 91.1275 94.544 91.1275 94.544 91.1275C94.544 91.1275 94.544 91.1275 94.544 91.1275C94.544 91.1275 94.544 91.1275 94.544 91.1275C94.544 91.1275 94.544 91.1275 94.544 91.1275C94.544 91.1275 94.544 91.1275 94.544 91.1275C94.544 91.1275 94.544 91.1275 94.544 91.1275C94.544 91.1275 94.544 91.1275 94.544 91.1275C94.544 91.1275 94.544 91.1275 94.544 91.1275C94.544 91.1275 94.544 91.1275 94.544 91.1275C94.544 91.1275 94.544 91.1275 94.544 91.1275C94.544 91.1275 94.544 91.1275 94.544 91.1275C94.544 91.1275 94.544 91.1275 94.544 91.1275C94.544 91.1275 94.544 91.1275 94.544 91.1275C94.544 91.1275 94.544 91.1275 94.544 91.1275C94.544 91.1275 94.544 91.1275 94.544 91.1275C94.544 91.1275 94.544 91.1275 94.544 91.1275C94.544 91.1275 94.544 91.1275 94.544 91.1275C94.544 91.1275 94.544 91.1275 94.544 91.1275C94.544 91.1275 94.544 91.1275 94.544 91.1275C94.544 91.1275 94.544 91.1275 94.544 91.1275C94.544 91.1275 94.544 91.1275 94.544 91.1275C94.544 91.1275 94.544 91.1275 94.544 91.1275C94.544 91.1275 94.544 91.1275 94.544 91.1275C94.544 91.1275 94.544 91.1275 94.544 91.1275C94.544 91.1275 94.544 91.1275 94.544 91.1275C94.544 91.1275 94.544 91.1275 94.544 91.1275C94.544 91.1275 94.544 91.1275 94.544 91.1275C94.544 91.1275 94.544 91.1275 94.544 91.1275C94.544 91.1275 94.544 91.1275 94.544 91.1275C94.544 91.1275 94.544 91.1275 94.544 91.1275C94.544 91.1275 94.544 91.1275 94.544 91.1275C94.544 91.1275 94.544 91.1275 94.544 91.1275C94.544 91.1275 94.544 91.1275 94.544 91.1275C94.544 91.1275 94.544 91.1275 94.544 91.1275C94.544 91.1275 94.544 91.1275 94.544 91.1275C94.544 91.1275 94.544 91.1275 94.544 91.1275C94.544 91.1275 94.544 91.1275 94.544 91.1275C94.544 91.1275 94.544 91.1275 94.544 91.1275C94.544 91.1275 94.544 91.1275 94.544 91.1275C94.544 91.1275 94.544 91.1275 94.544 91.1275C94.544 91.1275 94.544 91.1275 94.544 91.1275C94.544 91.1275 94.544 91.1275 94.544 91.1275C94.544 91.1275 94.544 91.1275 94.544 91.1275C94.544 91.1275 94.544 91.1275 94.544 91.1275C94.544 91.1275 94.544 91.1275 94.544 91.1275C94.544 91.1275 94.544 91.1275 94.544 91.1275C94.544 91.1275 94.544 91.1275 94.544 91.1275C94.544 91.1275 94.544 91.1275 94.544 91.1275C94.544 91.1275 94.544 91.1275 94.544 91.1275C94.544 91.1275 94.544 91.1275 94.544 91.1275C94.544 91.1275 94.544 91.1275 94.544 91.1275C94.544 91.1275 94.544 91.1275 94.544 91.1275C94.544 91.1275 94.544 91.1275 94.544 91.1275C94.544 91.1275 94.544 91.1275 94.544 91.1275C94.544 91.1275 94.544 91.1275 94.544 91.1275C94.544 91.1275 94.544 91.1275 94.544 91.1275C94.544 91.1275 94.544 91.1275 94.544 91.1275C94.544 91.1275 94.544 91.1275 94.544 91.1275C94.544 91.1275 94.544 91.1275 94.544 91.1275C94.544 91.1275 94.544 91.1275 94.544 91.1275C94.544 91.1275 94.544 91.1275 94.544 91.1275C94.544 91.1275 94.544 91.1275 94.544 91.1275C94.544 91.1275 94.544 91.1275 94.544 91.1275C94.544 91.1275 94.544 91.1275 94.544 91.1275C94.544 91.1275 94.544 91.1275 94.544 91.1275C94.544 91.1275 94.544 91.1275 94.544 91.1275C94.544 91.1275 94.544 91.1275 94.544 91.1275C94.544 91.1275 94.544 91.1275 94.544 91.1275C94.544 91.1275 94.544 91.1275 94.544 91.1275C94.544 91.1275 94.544 91.1275 94.544 91.1275C94.544 91.1275 94.544 91.1275 94.544 91.1275C94.544 91.1275 94.544 91.1275 94.544 91.1275C94.544 91.1275 94.544 91.1275 94.544 91.1275C94.544 91.1275 94.544 91.1275 94.544 91.1275C94.544 91.1275 94.544 91.1275 94.544 91.1275C94.544 91.1275 94.544 91.1275 94.544 91.1275C94.544 91.1275 94.544 91.1275 94.544 91.1275C94.544 91.1275 94.544 91.1275 94.544 91.1275C94.544 91.1275 94.544 91.1275 94.544 91.1275C94.544 91.1275 94.544 91.1275 94.544 91.1275C94.544 91.1275 94.544 91.1275 94.544 91.1275C94.544 91.1275 94.544 91.1275 94.544 91.1275C94.544 91.1275 94.544 91.1275 94.544 91.1275C94.544 91.1275 94.544 91.1275 94.544 91.1275C94.544 91.1275 94.544 91.1275 94.544 91.1275C94.544 91.1275 94.544 91.1275 94.544 91.1275C94.544 91.1275 94.544 91.1275 94.544 91.1275C94.544 91.1275 94.544 91.1275 94.544 91.1275C94.544 91.1275 94.544 91.1275 94.544 91.1275C94.544 91.1275 94.544 91.1275 94.544 91.1275C94.544 91.1275 94.544 91.1275 94.544 91.1275C94.544 91.1275 94.544 91.1275 94.544 91.1275C94.544 91.1275 94.544 91.1275 94.544 91.1275C94.544 91.1275 94.544 91.1275 94.544 91.1275C94.544 91.1275 94.544 91.1275 94.544 91.1275C94.544 91.1275 94.544 91.1275 94.544 91.1275C94.544 91.1275 94.544 91.1275 94.544 91.1275C94.544 91.1275 94.544 91.1275 94.544 91.1275C94.544 91.1275 94.544 91.1275 94.544 91.1275C94.544 91.1275 94.544 91.1275 94.544 91.1275C94.544 91.1275 94.544 91.1275 94.544 91.1275C94.544 91.1275 94.544 91.1275 94.544 91.1275C94.544 91.1275 94.544 91.1275 94.544 91.1275C94.544 91.1275 94.544 91.1275 94.544 91.1275C94.544 91.1275 94.544 91.1275 94.544 91.1275C94.544 91.1275 94.544 91.1275 94.544 91.1275C94.544 91.1275 94.544 91.1275 94.544 91.1275C94.544 91.1275 94.544 91.1275 94.544 91.1275C94.544 91.1275 94.544 91.1275 94.544 91.1275C94.544 91.1275 94.544 91.1275 94.544 91.1275C94.544 91.1275 94.544 91.1275 94.544 91.1275C94.544 91.1275 94.544 91.1275 94.544 91.1275C94.544 91.1275 94.544 91.1275 94.544 91.1275C94.544 91.1275 94.544 91.1275 94.544 91.1275C94.544 91.1275 94.544 91.1275 94.544 91.1275C94.544 91.1275 94.544 91.1275 94.544 91.1275C94.544 91.1275 94.544 91.1275 94.544 91.1275C94.544 91.1275 94.544 91.1275 94.544 91.1275C94.544 91.1275 94.544 91.1275 94.544 91.1275C94.544 91.1275 94.544 91.1275 94.544 91.1275C94.544 91.1275 94.544 91.1275 94.544 91.1275C94.544 91.1275 94.544 91.1275 94.544 91.1275C94.544 91.1275 94.544 91.1275 94.544 91.1275C94.544 91.1275 94.544 91.1275 94.544 91.1275C94.544 91.1275 94.544 91.1275 94.544 91.1275C94.544 91.1275 94.544 91.1275 94.544 91.1275C94.544 91.1275 94.544 91.1275 94.544 91.1275C94.544 91.1275 94.544 91.1275 94.544 91.1275C94.544 91.1275 94.544 91.1275 94.544 91.1275C94.544 91.1275 94.544 91.1275 94.544 91.1275C94.544 91.1275 94.544 91.1275 94.544 91.1275C94.544 91.1275 94.544 91.1275 94.544 91.1275C94.544 91.1275 94.544 91.1275 94.544 91.1275C94.544 91.1275 94.544 91.1275 94.544 91.1275C94.544 91.1275 94.544 91.1275 94.544 91.1275C94.544 91.1275 94.544 91.1275 94.544 91.1275C94.544 91.1275 94.544 91.1275 94.544 91.1275C94.544 91.1275 94.544 91.1275 94.544 91.1275C94.544 91.1275 94.544 91.1275 94.544 91.1275C94.544 91.1275 94.544 91.1275 94.544 91.1275C94.544 91.1275 94.544 91.1275 94.544 91.1275C94.544 91.1275 94.544 91.1275 94.544 91.1275C94.544 91.1275 94.544 91.1275 94.544 91.1275C94.544 91.1275 94.544 91.1275 94.544 91.1275C94.544 91.1275 94.544 91.1275 94.544 91.1275C94.544 91.1275 94.544 91.1275 94.544 91.1275C94.544 91.1275 94.544 91.1275 94.544 91.1275C94.544 91.1275 94.544 91.1275 94.544 91.1275C94.544 91.1275 94.544 91.1275 94.544 91.1275C94.544 91.1275 94.544 91.1275 94.544 91.1275C94.544 91.1275 94.544 91.1275 94.544 91.1275C94.544 91.1275 94.544 91.1275 94.544 91.1275C94.544 91.1275 94.544 91.1275 94.544 91.1275C94.544 91.1275 94.544 91.1275 94.544 91.1275C94.544 91.1275 94.544 91.1275 94.544 91.1275C94.544 91.1275 94.544 91.1275 94.544 91.1275C94.544 91.1275 94.544 91.1275 94.544 91.1275C94.544 91.1275 94.544 91.1275 94.544 91.1275C94.544 91.1275 94.544 91.1275 94.544 91.1275C94.544 91.1275 94.544 91.1275 94.544 91.1275C94.544 91.1275 94.544 91.1275 94.544 91.1275C94.544 91.1275 94.544 91.1275 94.544 91.1275C94.544 91.1275 94.544 91.1275 94.544 91.1275C94.544 91.1275 94.544 91.1275 94.544 91.1275C94.544 91.1275 94.544 91.1275 94.544 91.1275C94.544 91.1275 94.544 91.1275 94.544 91.1275C94.544 91.1275 94.544 91.1275 94.544 91.1275C94.544 91.1275 94.544 91.1275 94.544 91.1275C94.544 91.1275 94.544 91.1275 94.544 91.1275C94.544 91.1275 94.544 91.1275 94.544 91.1275C94.544 91.1275 94.544 91.1275 94.544 91.1275C94.544 91.1275 94.544 91.1275 94.544 91.1275C94.544 91.1275 94.544 91.1275 94.544 91.1275C94.544 91.1275 94.544 91.1275 94.544 91.1275C94.544 91.1275 94.544 91.1275 94.544 91.1275C94.544 91.1275 94.544 91.1275 94.544 91.1275C94.544 91.1275 94.544 91.1275 94.544 91.1275C94.544 91.1275 94.544 91.1275 94.544 91.1275C94.544 91.1275 94.544 91.1275 94.544 91.1275C94.544 91.1275 94.544 91.1275 94.544 91.1275C94.544 91.1275 94.544 91.1275 94.544 91.1275C94.544 91.1275 94.544 91.1275 94.544 91.1275C94.544 91.1275 94.544 91.1275 94.544 91.1275C94.544 91.1275 94.544 91.1275 94.544 91.1275C94.544 91.1275 94.544 91.1275 94.544 91.1275C94.544 91.1275 94.544 91.1275 94.544 91.1275C94.544 91.1275 94.544 91.1275 94.544 91.1275C94.544 91.1275 94.544 91.1275 94.544 91.1275C94.544 91.1275 94.544 91.1275 94.544 91.1275C94.544 91.1275 94.544 91.1275 94.544 91.1275C94.544 91.1275 94.544 91.1275 94.544 91.1275C94.544 91.1275 94.544 91.1275 94.544 91.1275C94.544 91.1275 94.544 91.1275 94.544 91.1275C94.544 91.1275 94.544 91.1275 94.544 91.1275C94.544 91.1275 94.544 91.1275 94.544 91.1275C94.544 91.1275 94.544 91.1275 94.544 91.1275C94.544 91.1275 94.544 91.1275 94.544 91.1275C94.544 91.1275 94.544 91.1275 94.544 91.1275C94.544 91.1275 94.544 91.1275 94.544 91.1275C94.544 91.1275 94.544 91.1275 94.544 91.1275C94.544 91.1275 94.544 91.1275 94.544 91.1275C94.544 91.1275 94.544 91.1275 94.544 91.1275C94.544 91.1275 94.544 91.1275 94.544 91.1275C94.544 91.1275 94.544 91.1275 94.544 91.1275C94.544 91.1275 94.544 91.1275 94.544 91.1275C94.544 91.1275 94.544 91.1275 94.544 91.1275C94.544 91.1275 94.544 91.1275 94.544 91.1275C94.544 91.1275 94.544 91.1275 94.544 91.1275C94.544 91.1275 94.544 91.1275 94.544 91.1275C94.544 91.1275 94.544 91.1275 94.544 91.1275C94.544 91.1275 94.544 91.1275 94.544 91.1275C94.544 91.1275 94.544 91.1275 94.544 91.1275C94.544 91.1275 94.544 91.1275 94.544 91.1275C94.544 91.1275 94.544 91.1275 94.544 91.1275C94.544 91.1275 94.544 91.1275 94.544 91.1275C94.544 91.1275 94.544 91.1275 94.544 91.1275C94.544 91.1275 94.544 91.1275 94.544 91.1275C94.544 91.1275 94.544 91.1275 94.544 91.1275C94.544 91.1275 94.544 91.1275 94.544 91.1275C94.544 91.1275 94.544 91.1275 94.544 91.1275C94.544 91.1275 94.544 91.1275 94.544 91.1275C94.544 91.1275 95.5903 90.832 96.6366 94.5365C96.6366 94.5365 96.6366 94.5365 96.6366 94.5365C96.6366 94.5365 96.6366 94.5365 96.6366 94.5365C96.6366 94.5365 96.6366 94.5365 96.6366 94.5365C96.6366 94.5365 96.6366 94.5365 96.6366 94.5365C96.6366 94.5365 96.6366 94.5365 96.6366 94.5365C96.6366 94.5365 96.6366 94.5365 96.6366 94.5365C96.6366 94.5365 96.6366 94.5365 96.6366 94.5365C96.6366 94.5365 96.6366 94.5365 96.6366 94.5365C96.6366 94.5365 96.6366 94.5365 96.6366 94.5365C96.6366 94.5365 96.6366 94.5365 96.6366 94.5365C96.6366 94.5365 96.6366 94.5365 96.6366 94.5365C96.6366 94.5365 96.6366 94.5365 96.6366 94.5365C96.6366 94.5365 96.6366 94.5365 96.6366 94.5365C96.6366 94.5365 96.6366 94.5365 96.6366 94.5365C96.6366 94.5365 96.6366 94.5365 96.6366 94.5365C96.6366 94.5365 96.6366 94.5365 96.6366 94.5365C96.6366 94.5365 96.6366 94.5365 96.6366 94.5365C96.6366 94.5365 96.6366 94.5365 96.6366 94.5365C96.6366 94.5365 96.6366 94.5365 96.6366 94.5365C96.6366 94.5365 96.6366 94.5365 96.6366 94.5365C96.6366 94.5365 96.6366 94.5365 96.6366 94.5365C96.6366 94.5365 96.6366 94.5365 96.6366 94.5365C96.6366 94.5365 96.6366 94.5365 96.6366 94.5365C96.6366 94.5365 96.6366 94.5365 96.6366 94.5365C96.6366 94.5365 96.6366 94.5365 96.6366 94.5365C96.6366 94.5365 96.6366 94.5365 96.6366 94.5365C96.6366 94.5365 96.6366 94.5365 96.6366 94.5365C96.6366 94.5365 96.6366 94.5365 96.6366 94.5365C96.6366 94.5365 96.6366 94.5365 96.6366 94.5365C96.6366 94.5365 96.6366 94.5365 96.6366 94.5365C96.6366 94.5365 96.6366 94.5365 96.6366 94.5365C96.6366 94.5365 96.6366 94.5365 96.6366 94.5365C96.6366 94.5365 96.6366 94.5365 96.6366 94.5365C96.6366 94.5365 96.6366 94.5365 96.6366 94.5365C96.6366 94.5365 96.6366 94.5365 96.6366 94.5365C96.6366 94.5365 96.6366 94.5365 96.6366 94.5365C96.6366 94.5365 96.6366 94.5365 96.6366 94.5365C96.6366 94.5365 96.6366 94.5365 96.6366 94.5365C96.6366 94.5365 96.6366 94.5365 96.6366 94.5365C96.6366 94.5365 96.6366 94.5365 96.6366 94.5365C96.6366 94.5365 96.6366 94.5365 96.6366 94.5365C96.6366 94.5365 96.6366 94.5365 96.6366 94.5365C96.6366 94.5365 96.6366 94.5365 96.6366 94.5365C96.6366 94.5365 96.6366 94.5365 96.6366 94.5365C96.6366 94.5365 96.6366 94.5365 96.6366 94.5365C96.6366 94.5365 96.6366 94.5365 96.6366 94.5365C96.6366 94.5365 96.6366 94.5365 96.6366 94.5365C96.6366 94.5365 96.6366 94.5365 96.6366 94.5365C96.6366 94.5365 96.6366 94.5365 96.6366 94.5365C96.6366 94.5365 96.6366 94.5365 96.6366 94.5365C96.6366 94.5365 96.6366 94.5365 96.6366 94.5365C96.6366 94.5365 96.6366 94.5365 96.6366 94.5365C96.6366 94.5365 96.6366 94.5365 96.6366 94.5365C96.6366 94.5365 96.6366 94.5365 96.6366 94.5365C96.6366 94.5365 96.6366 94.5365 96.6366 94.5365C96.6366 94.5365 96.6366 94.5365 96.6366 94.5365C96.6366 94.5365 96.6366 94.5365 96.6366 94.5365C96.6366 94.5365 96.6366 94.5365 96.6366 94.5365C96.6366 94.5365 96.6366 94.5365 96.6366 94.5365C96.6366 94.5365 96.6366 94.5365 96.6366 94.5365C96.6366 94.5365 96.6366 94.5365 96.6366 94.5365C96.6366 94.5365 96.6366 94.5365 96.6366 94.5365C96.6366 94.5365 96.6366 94.5365 96.6366 94.5365C96.6366 94.5365 96.6366 94.5365 96.6366 94.5365C96.6366 94.5365 96.6366 94.5365 96.6366 94.5365C96.6366 94.5365 96.6366 94.5365 96.6366 94.5365C96.6366 94.5365 96.6366 94.5365 96.6366 94.5365C96.6366 94.5365 96.6366 94.5365 96.6366 94.5365C96.6366 94.5365 96.6366 94.5365 96.6366 94.5365C96.6366 94.5365 96.6366 94.5365 96.6366 94.5365C96.6366 94.5365 96.6366 94.5365 96.6366 94.5365C96.6366 94.5365 96.6366 94.5365 96.6366 94.5365C96.6366 94.5365 96.6366 94.5365 96.6366 94.5365C96.6366 94.5365 96.6366 94.5365 96.6366 94.5365C96.6366 94.5365 96.6366 94.5365 96.6366 94.5365C96.6366 94.5365 96.6366 94.5365 96.6366 94.5365C96.6366 94.5365 96.6366 94.5365 96.6366 94.5365C96.6366 94.5365 96.6366 94.5365 96.6366 94.5365C96.6366 94.5365 96.6366 94.5365 96.6366 94.5365C96.6366 94.5365 96.6366 94.5365 96.6366 94.5365C96.6366 94.5365 96.6366 94.5365 96.6366 94.5365C96.6366 94.5365 96.6366 94.5365 96.6366 94.5365C96.6366 94.5365 96.6366 94.5365 96.6366 94.5365C96.6366 94.5365 96.6366 94.5365 96.6366 94.5365C96.6366 94.5365 96.6366 94.5365 96.6366 94.5365C96.6366 94.5365 96.6366 94.5365 96.6366 94.5365C96.6366 94.5365 96.6366 94.5365 96.6366 94.5365C96.6366 94.5365 96.6366 94.5365 96.6366 94.5365C96.6366 94.5365 96.6366 94.5365 96.6366 94.5365C96.6366 94.5365 96.6366 94.5365 96.6366 94.5365C96.6366 94.5365 96.6366 94.5365 96.6366 94.5365C96.6366 94.5365 96.6366 94.5365 96.6366 94.5365C96.6366 94.5365 96.6366 94.5365 96.6366 94.5365C96.6366 94.5365 96.6366 94.5365 96.6366 94.5365C96.6366 94.5365 96.6366 94.5365 96.6366 94.5365C96.6366 94.5365 96.6366 94.5365 96.6366 94.5365C96.6366 94.5365 96.6366 94.5365 96.6366 94.5365C96.6366 94.5365 96.6366 94.5365 96.6366 94.5365C96.6366 94.5365 96.6366 94.5365 96.6366 94.5365C96.6366 94.5365 96.6366 94.5365 96.6366 94.5365C96.6366 94.5365 96.6366 94.5365 96.6366 94.5365C96.6366 94.5365 96.6366 94.5365 96.6366 94.5365C96.6366 94.5365 96.6366 94.5365 96.6366 94.5365C96.6366 94.5365 96.6366 94.5365 96.6366 94.5365C96.6366 94.5365 96.6366 94.5365 96.6366 94.5365C96.6366 94.5365 96.6366 94.5365 96.6366 94.5365C96.6366 94.5365 96.6366 94.5365 96.6366 94.5365C96.6366 94.5365 96.6366 94.5365 96.6366 94.5365L94.544 91.1275C94.544 91.1275 94.544 91.1275 94.544 91.1275C94.544 91.1275 94.544 91.1275 94.544 91.1275C94.544 91.1275 94.544 91.1275 94.544 91.1275C94.544 91.1275 94.544 91.1275 94.544 91.1275C94.544 91.1275 94.544 91.1275 94.544 91.1275C94.544 91.1275 94.544 91.1275 94.544 91.1275C94.544 91.1275 94.544 91.1275 94.544 91.1275C94.544 91.1275 94.544 91.1275 94.544 91.1275C94.544 91.1275 94.544 91.1275 94.544 91.1275C94.544 91.1275 94.544 91.1275 94.544 91.1275C94.544 91.1275 94.544 91.1275 94.544 91.1275C94.544 91.1275 94.544 91.1275 94.544 91.1275C94.544 91.1275 94.544 91.1275 94.544 91.1275C94.544 91.1275 94.544 91.1275 94.544 91.1275C94.544 91.1275 94.544 91.1275 94.544 91.1275C94.544 91.1275 94.544 91.1275 94.544 91.1275C94.544 91.1275 94.544 91.1275 94.544 91.1275C94.544 91.1275 94.544 91.1275 94.544 91.1275C94.544 91.1275 94.544 91.1275 94.544 91.1275C94.544 91.1275 94.544 91.1275 94.544 91.1275C94.544 91.1275 94.544 91.1275 94.544 91.1275C94.544 91.1275 94.544 91.1275 94.544 91.1275C94.544 91.1275 94.544 91.1275 94.544 91.1275C94.544 91.1275 94.544 91.1275 94.544 91.1275C94.544 91.1275 94.544 91.1275 94.544 91.1275C94.544 91.1275 94.544 91.1275 94.544 91.1275C94.544 91.1275 94.544 91.1275 94.544 91.1275C94.544 91.1275 94.544 91.1275 94.544 91.1275C94.544 91.1275 94.544 91.1275 94.544 91.1275C94.544 91.1275 94.544 91.1275 94.544 91.1275C94.544 91.1275 94.544 91.1275 94.544 91.1275C94.544 91.1275 94.544 91.1275 94.544 91.1275C94.544 91.1275 94.544 91.1275 94.544 91.1275C94.544 91.1275 94.544 91.1275 94.544 91.1275C94.544 91.1275 94.544 91.1275 94.544 91.1275C94.544 91.1275 94.544 91.1275 94.544 91.1275C94.544 91.1275 94.544 91.1275 94.544 91.1275C94.544 91.1275 94.544 91.1275 94.544 91.1275C94.544 91.1275 94.544 91.1275 94.544 91.1275C94.544 91.1275 94.544 91.1275 94.544 91.1275C94.544 91.1275 94.544 91.1275 94.544 91.1275C94.544 91.1275 94.544 91.1275 94.544 91.1275C94.544 91.1275 94.544 91.1275 94.544 91.1275C94.544 91.1275 94.544 91.1275 94.544 91.1275C94.544 91.1275 94.544 91.1275 94.544 91.1275C94.544 91.1275 94.544 91.1275 94.544 91.1275C94.544 91.1275 94.544 91.1275 94.544 91.1275C94.544 91.1275 94.544 91.1275 94.544 91.1275C94.544 91.1275 94.544 91.1275 94.544 91.1275C94.544 91.1275 94.544 91.1275 94.544 91.1275C94.544 91.1275 94.544 91.1275 94.544 91.1275C94.544 91.1275 94.544 91.1275 94.544 91.1275C94.544 91.1275 94.544 91.1275 94.544 91.1275C94.544 91.1275 94.544 91.1275 94.544 91.1275C94.544 91.1275 94.544 91.1275 94.544 91.1275C94.544 91.1275 94.544 91.1275 94.544 91.1275C94.544 91.1275 94.544 91.1275 94.544 91.1275C94.544 91.1275 94.544 91.1275 94.544 91.1275C94.544 91.1275 94.544 91.1275 94.544 91.1275C94.544 91.1275 94.544 91.1275 94.544 91.1275C94.544 91.1275 94.544 91.1275 94.544 91.1275C94.544 91.1275 94.544 91.1275 94.544 91.1275C94.544 91.1275 94.544 91.1275 94.544 91.1275C94.544 91.1275 94.544 91.1275 94.544 91.1275C94.544 91.1275 94.544 91.1275 94.544 91.1275C94.544 91.1275 94.544 91.1275 94.544 91.1275C94.544 91.1275 94.544 91.1275 94.544 91.1275C94.544 91.1275 94.544 91.1275 94.544 91.1275C94.544 91.1275 94.544 91.1275 94.544 91.1275C94.544 91.1275 94.544 91.1275 94.544 91.1275C94.544 91.1275 94.544 91.1275 94.544 91.1275C94.544 91.1275 94.544 91.1275 94.544 91.1275C94.544 91.1275 94.544 91.1275 94.544 91.1275C94.544 91.1275 94.544 91.1275 94.544 91.1275C94.544 91.1275 94.544 91.1275 94.544 91.1275C94.544 91.1275 94.544 91.1275 94.544 91.1275C94.544 91.1275 94.544 91.1275 94.544 91.1275C94.544 91.1275 94.544 91.1275 94.544 91.1275C94.544 91.1275 94.544 91.1275 94.544 91.1275C94.544 91.1275 94.544 91.1275 94.544 91.1275C94.544 91.1275 94.544 91.1275 94.544 91.1275C94.544 91.1275 94.544 91.1275 94.544 91.1275C94.544 91.1275 94.544 91.1275 94.544 91.1275C94.544 91.1275 94.544 91.1275 94.544 91.1275C94.544 91.1275 94.544 91.1275 94.544 91.1275C94.544 91.1275 94.544 91.1275 94.544 91.1275C94.544 91.1275 94.544 91.1275 94.544 91.1275C94.544 91.1275 94.544 91.1275 94.544 91.1275C94.544 91.1275 94.544 91.1275 94.544 91.1275C94.544 91.1275 94.544 91.1275 94.544 91.1275C94.544 91.1275 94.544 91.1275 94.544 91.1275C94.544 91.1275 94.544 91.1275 94.544 91.1275C94.544 91.1275 94.544 91.1275 94.544 91.1275C94.544 91.1275 94.544 91.1275 94.544 91.1275C94.544 91.1275 94.544 91.1275 94.544 91.1275C94.544 91.1275 94.544 91.1275 94.544 91.1275C94.544 91.1275 94.544 91.1275 94.544 91.1275C94.544 91.1275 94.544 91.1275 94.544 91.1275C94.544 91.1275 94.544 91.1275 94.544 91.1275C94.544 91.1275 94.544 91.1275 94.544 91.1275C94.544 91.1275 94.544 91.1275 94.544 91.1275C94.544 91.1275 94.544 91.1275 94.544 91.1275C94.544 91.1275 94.544 91.1275 94.544 91.1275C94.544 91.1275 94.544 91.1275 94.544 91.1275C94.544 91.1275 94.544 91.1275 94.544 91.1275C94.544 91.1275 94.544 91.1275 94.544 91.1275C94.544 91.1275 94.544 91.1275 94.544 91.1275C94.544 91.1275 94.544 91.1275 94.544 91.1275C95.5903 94.832 96.6366 94.5365 96.6366 94.5365C96.6366 94.5365 96.6366 94.5365 96.6366 94.5365C96.6366 94.5365 96.6366 94.5365 96.6366 94.5365C96.6366 94.5365 96.6366 94.5365 96.6366 94.5365C96.6366 94.5365 96.6366 94.5365 96.6366 94.5365C96.6366 94.5365 96.6366 94.5365 96.6366 94.5365C96.6366 94.5365 96.6366 94.5365 96.6366 94.5365C96.6366 94.5365 96.6366 94.5365 96.6366 94.5365C96.6366 94.5365 96.6366 94.5365 96.6366 94.5365C96.6366 94.5365 96.6366 94.5365 96.6366 94.5365C96.6366 94.5365 96.6366 94.5365 96.6366 94.5365C96.6366 94.5365 96.6366 94.5365 96.6366 94.5365C96.6366 94.5365 96.6366 94.5365 96.6366 94.5365C96.6366 94.5365 96.6366 94.5365 96.6366 94.5365C96.6366 94.5365 96.6366 94.5365 96.6366 94.5365C96.6366 94.5365 96.6366 94.5365 96.6366 94.5365C96.6366 94.5365 96.6366 94.5365 96.6366 94.5365C96.6366 94.5365 96.6366 94.5365 96.6366 94.5365C96.6366 94.5365 96.6366 94.5365 96.6366 94.5365C96.6366 94.5365 96.6366 94.5365 96.6366 94.5365C96.6366 94.5365 96.6366 94.5365 96.6366 94.5365C96.6366 94.5365 96.6366 94.5365 96.6366 94.5365C96.6366 94.5365 96.6366 94.5365 96.6366 94.5365C96.6366 94.5365 96.6366 94.5365 96.6366 94.5365C96.6366 94.5365 96.6366 94.5365 96.6366 94.5365C96.6366 94.5365 96.6366 94.5365 96.6366 94.5365C96.6366 94.5365 96.6366 94.5365 96.6366 94.5365C96.6366 94.5365 96.6366 94.5365 96.6366 94.5365C96.6366 94.5365 96.6366 94.5365 96.6366 94.5365C96.6366 94.5365 96.6366 94.5365 96.6366 94.5365C96.6366 94.5365 96.6366 94.5365 96.6366 94.5365C96.6366 94.5365 96.6366 94.5365 96.6366 94.5365C96.6366 94.5365 96.6366 94.5365 96.6366 94.5365C96.6366 94.5365 96.6366 94.5365 96.6366 94.5365C96.6366 94.5365 96.6366 94.5365 96.6366 94.5365C96.6366 94.5365 96.6366 94.5365 96.6366 94.5365C96.6366 94.5365 96.6366 94.5365 96.6366 94.5365C96.6366 94.5365 96.6366 94.5365 96.6366 94.5365C96.6366 94.5365 96.6366 94.5365 96.6366 94.5365C96.6366 94.5365 96.6366 94.5365 96.6366 94.5365C96.6366 94.5365 96.6366 94.5365 96.6366 94.5365C96.6366 94.5365 96.6366 94.5365 96.6366 94.5365C96.6366 94.5365 96.6366 94.5365 96.6366 94.5365C96.6366 94.5365 96.6366 94.5365 96.6366 94.5365C96.6366 94.5365 96.6366 94.5365 96.6366 94.5365C96.6366 94.5365 96.6366 94.5365 96.6366 94.5365C96.6366 94.5365 96.6366 94.5365 96.6366 94.5365C96.6366 94.5365 96.6366 94.5365 96.6366 94.5365C96.6366 94.5365 96.6366 94.5365 96.6366 94.5365C96.6366 94.5365 96.6366 94.5365 96.6366 94.5365C96.6366 94.5365 96.6366 94.5365 96.6366 94.5365C96.6366 94.5365 96.6366 94.5365 96.6366 94.5365C96.6366 94.5365 96.6366 94.5365 96.6366 94.5365C96.6366 94.5365 96.6366 94.5365 96.6366 94.5365C96.6366 94.5365 96.6366 94.5365 96.6366 94.5365C96.6366 94.5365 96.6366 94.5365 96.6366 94.5365C96.6366 94.5365 96.6366 94.5365 96.6366 94.5365C96.6366 94.5365 96.6366 94.5365 96.6366 94.5365C96.6366 94.5365 96.6366 94.5365 96.6366 94.5365C96.6366 94.5365 96.6366 94.5365 96.6366 94.5365C96.6366 94.5365 96.6366 94.5365 96.6366 94.5365C96.6366 94.5365 96.6366 94.5365 96.6366 94.5365C96.6366 94.5365 96.6366 94.5365 96.6366 94.5365C96.6366 94.5365 96.6366 94.5365 96.6366 94.5365C96.6366 94.5365 96.6366 94.5365 96.6366 94.5365C96.6366 94.5365 96.6366 94.5365 96.6366 94.5365C96.6366 94.5365 96.6366 94.5365 96.6366 94.5365C96.6366 94.5365 96.6366 94.5365 96.6366 94.5365C96.6366 94.5365 96.6366 94.5365 96.6366 94.5365C96.6366 94.5365 96.6366 94.5365 96.6366 94.5365C96.6366 94.5365 96.6366 94.5365 96.6366 94.5365C96.6366 94.5365 96.6366 94.5365 96.6366 94.5365C96.6366 94.5365 96.6366 94.5365 96.6366 94.5365C96.6366 94.5365 96.6366 94.5365 96.6366 94.5365C96.6366 94.5365 96.6366 94.5365 96.6366 94.5365C96.6366 94.5365 96.6366 94.5365 96.6366 94.5365C96.6366 94.5365 96.6366 94.5365 96.6366 94.5365C96.6366 94.5365 96.6366 94.5365 96.6366 94.5365C96.6366 94.5365 96.6366 94.5365 96.6366 94.5365C96.6366 94.5365 96.6366 94.5365 96.6366 94.5365C96.6366 94.5365 96.6366 94.5365 96.6366 94.5365C96.6366 94.5365 96.6366 94.5365 96.6366 94.5365C96.6366 94.5365 96.6366 94.5365 96.6366 94.5365C96.6366 94.5365 96.6366 94.5365 96.6366 94.5365C96.6366 94.5365 96.6366 94.5365 96.6366 94.5365C96.6366 94.5365 96.6366 94.5365 96.6366 94.5365C96.6366 94.5365 96.6366 94.5365 96.6366 94.5365C96.6366 94.5365 96.6366 94.5365 96.6366 94.5365C96.6366 94.5365 96.6366 94.5365 96.6366 94.5365C96.6366 94.5365 96.6366 94.5365 96.6366 94.5365C96.6366 94.5365 96.6366 94.5365 96.6366 94.5365C96.6366 94.5365 96.6366 94.5365 96.6366 94.5365C96.6366 94.5365 96.6366 94.5365 96.6366 94.5365C96.6366 94.5365 96.6366 94.5365 96.6366 94.5365C96.6366 94.5365 96.6366 94.5365 96.6366 94.5365C96.6366 94.5365 96.6366 94.5365 96.6366 94.5365C96.6366 94.5365 96.6366 94.5365 96.6366 94.5365C96.6366 94.5365 96.6366 94.5365 96.6366 94.5365C96.6366 94.5365 96.6366 94.5365 96.6366 94.5365C96.6366 94.5365 96.6366 94.5365 96.6366 94.5365C96.6366 94.5365 96.6366 94.5365 96.6366 94.5365C96.6366 94.5365 96.6366 94.5365 96.6366 94.5365C96.6366 94.5365 96.6366 94.5365 96.6366 94.5365C96.6366 94.5365 96.6366 94.5365 96.6366 94.5365C96.6366 94.5365 96.6366 94.5365 96.6366 94.5365C96.6366 94.5365 96.6366 94.5365 96.6366 94.5365C96.6366 94.5365 96.6366 94.5365 96.6366 94.5365C96.6366 94.5365 96.6366 94.5365 96.6366 94.5365C96.6366 94.5365 96.6366 94.5365 96.6366 94.5365C96.6366 94.5365 96.6366 94.5365 96.6366 94.5365C96.6366 94.5365 96.6366 94.5365 96.6366 94.5365C96.6366 94.5365 96.6366 94.5365 96.6366 94.5365C96.6366 94.5365 96.6366 94.5365 96.6366 94.5365C96.6366 94.5365 96.6366 94.5365 96.6366 94.5365C96.6366 94.5365 96.6366 94.5365 96.6366 94.5365C96.6366 94.5365 96.6366 94.5365 96.6366 94.5365C96.6366 94.5365 96.6366 94.5365 96.6366 94.5365C96.6366 94.5365 96.6366 94.5365 96.6366 94.5365C96.6366 94.5365 96.6366 94.5365 96.6366 94.5365C96.6366 94.5365 96.6366 94.5365 96.6366 94.5365C96.6366 94.5365 96.6366 94.5365 96.6366 94.5365C96.6366 94.5365 96.6366 94.5365 96.6366 94.5365C96.6366 94.5365 96.6366 94.5365 96.6366 94.5365C96.6366 94.5365 96.6366 94.5365 96.6366 94.5365C96.6366 94.5365 96.6366 94.5365 96.6366 94.5365C96.6366 94.5365 96.6366 94.5365 96.6366 94.5365C96.6366 94.5365 96.6366 94.5365 96.6366 94.5365C96.6366 94.5365 96.6366 94.5365 96.6366 94.5365C96.6366 94.5365 96.6366 94.5365 96.6366 94.5365C96.6366 94.5365 96.6366 94.5365 96.6366 94.5365C96.6366 94.5365 96.6366 94.5365 96.6366 94.5365C96.6366 94.5365 96.6366 94.5365 96.6366 94.5365C96.6366 94.5365 96.6366 94.5365 96.6366 94.5365C96.6366 94.5365 96.6366 94.5365 96.6366 94.5365C96.6366 94.5365 96.6366 94.5365 96.6366 94.5365C96.6366 94.5365 96.6366 94.5365 96.6366 94.5365C96.6366 94.5365 96.6366 94.5365 96.6366 94.5365C96.6366 94.5365 96.6366 94.5365 96.6366 94.5365C96.6366 94.5365 96.6366 94.5365 96.6366 94.5365C96.6366 94.5365 96.6366 94.5365 96.6366 94.5365C96.6366 94.5365 96.6366 94.5365 96.6366 94.5365C96.6366 94.5365 96.6366 94.5365 96.6366 94.5365C96.6366 94.5365 96.6366 94.5365 96.6366 94.5365C96.6366 94.5365 96.6366 94.5365 96.6366 94.5365C96.6366 94.5365 96.6366 94.5365 96.6366 94.5365C96.6366 94.5365 96.6366 94.5365 96.6366 94.5365C96.6366 94.5365 96.6366 94.5365 96.6366 94.5365C96.6366 94.5365 96.6366 94.5365 96.6366 94.5365C96.6366 94.5365 96.6366 94.5365 96.6366 94.5365C96.6366 94.5365 96.6366 94.5365 96.6366 94.5365C96.6366 94.5365 96.6366 94.5365 96.6366 94.5365C96.6366 94.5365 96.6366 94.5365 96.6366 94.5365C96.6366 94.5365 96.6366 94.5365 96.6366 94.5365C96.6366 94.5365 96.6366 94.5365 96.6366 94.5365C96.6366 94.5365 96.6366 94.5365 96.6366 94.5365C96.6366 94.5365 96.6366 94.5365 96.6366 94.5365C96.6366 94.5365 96.6366 94.5365 96.6366 94.5365C96.6366 94.5365 96.6366 94.5365 96.6366 94.5365C96.6366 94.5365 96.6366 94.5365 96.6366 94.5365C96.6366 94.5365 96.6366 94.5365 96.6366 94.5365C96.6366 94.5365 96.6366 94.5365 96.6366 94.5365C96.6366 94.5365 96.6366 94.5365 96.6366 94.5365C96.6366 94.5365 96.6366 94.5365 96.6366 94.5365C96.6366 94.5365 96.6366 94.5365 96.6366 94.5365C96.6366 94.5365 96.6366 94.5365 96.6366 94.5365C96.6366 94.5365 96.6366 94.5365 96.6366 94.5365C96.6366 94.5365 96.6366 94.5365 96.6366 94.5365C96.6366 94.5365 96.6366 94.5365 96.6366 94.5365C96.6366 94.5365 96.6366 94.5365 96.6366 94.5365C96.6366 94.5365 96.6366 94.5365 96.6366 94.5365C96.6366 94.5365 96.6366 94.5365 96.6366 94.5365C96.6366 94.5365 96.6366 94.5365 96.6366 94.5365C96.6366 94.5365 96.6366 94.5365 96.6366 94.5365C96.6366 94.5365 96.6366 94.5365 96.6366 94.5365C96.6366 94.5365 96.6366 94.5365 96.6366 94.5365C96.6366 94.5365 96.6366 94.5365 96.6366 94.5365C96.6366 94.5365 96.6366 94.5365 96.6366 94.5365C96.6366 94.5365 96.6366 94.5365 96.6366 94.5365C96.6366 94.5365 96.6366 94.5365 96.6366 94.5365C96.6366 94.5365 96.6366 94.5365 96.6366 94.5365C96.6366 94.5365 96.6366 94.5365 96.6366 94.5365C96.6366 94.5365 96.6366 94.5365 96.6366 94.5365C96.6366 94.5365 96.6366 94.5365 96.6366 94.5365C96.6366 94.5365 96.6366 94.5365 96.6366 94.5365C96.6366 94.5365 96.6366 94.5365 96.6366 94.5365C96.6366 94.5365 96.6366 94.5365 96.6366 94.5365C96.6366 94.5365 96.6366 94.5365 96.6366 94.5365C96.6366 94.5365 96.6366 94.5365 96.6366 94.5365C96.6366 94.5365 96.6366 94.5365 96.6366 94.5365C96.6366 94.5365 96.6366 94.5365 96.6366 94.5365C96.6366 94.5365 96.6366 94.5365 96.6366 94.5365C96.6366 94.5365 96.6366 94.5365 96.6366 94.5365C96.6366 94.5365 96.6366 94.5365 96.6366 94.5365C96.6366 94.5365 96.6366 94.5365 96.6366 94.5365C96.6366 94.5365 96.6366 94.5365 96.6366 94.5365C96.6366 94.5365 96.6366 94.5365 96.6366 94.5365C96.6366 94.5365 96.6366 94.5365 96.6366 94.5365C96.6366 94.5365 96.6366 94.5365 96.6366 94.5365C96.6366 94.5365 96.6366 94.5365 96.6366 94.5365C96.6366 94.5365 96.6366 94.5365 96.6366 94.5365C96.6366 94.5365 96.6366 94.5365 96.6366 94.5365C96.6366 94.5365 96.6366 94.5365 96.6366 94.5365C96.6366 94.5365 96.6366 94.5365 96.6366 94.5365C96.6366 94.5365 96.6366 94.5365 96.6366 94.5365C96.6366 94.5365 96.6366 94.5365 96.6366 94.5365C96.6366 94.5365 96.6366 94.5365 96.6366 94.5365C96.6366 94.5365 96.6366 94.5365 96.6366 94.5365C96.6366 94.5365 96.6366 94.5365 96.6366 94.5365C96.6366 94.5365 96.6366 94.5365 96.6366 94.5365C96.6366 94.5365 96.6366 94.5365 96.6366 94.5365C96.6366 94.5365 96.6366 94.5365 96.6366 94.5365C96.6366 94.5365 96.6366 94.5365 96.6366 94.5365C96.6366 94.5365 96.6366 94.5365 96.6366 94.5365C96.6366 94.5365 96.6366 94.5365 96.6366 94.5365C96.6366 94.5365 96.6366 94.5365 96.6366 94.5365C96.6366 94.5365 96.6366 94.5365 96.6366 94.5365C96.6366 94.5365 96.6366 94.5365 96.6366 94.5365C96.6366 94.5365 96.6366 94.5365 96.6366 94.5365C96.6366 94.5365 96.6366 94.5365 96.6366 94.5365C96.6366 94.5365 96.6366 94.5365 96.6366 94.5365C96.6366 94.5365 96.6366 94.5365 96.6366 94.5365C96.6366 94.5365 96.6366 94.5365 96.6366 94.5365C96.6366 94.5365 96.6366 94.5365 96.6366 94.5365C96.6366 94.5365 96.6366 94.5365 96.6366 94.5365C96.6366 94.5365 96.6366 94.5365 96.6366 94.5365C96.6366 94.5365 96.6366 94.5365 96.6366 94.5365C96.6366 94.5365 96.6366 94.5365 96.6366 94.5365C96.6366 94.5365 96.6366 94.5365 96.6366 94.5365C96.6366 94.5365 96.6366 94.5365 96.6366 94.5365C96.6366 94.5365 96.6366 94.5365 96.6366 94.5365C96.6366 94.5365 96.6366 94.5365 96.6366 94.5365C96.6366 94.5365 96.6366 94.5365 96.6366 94.5365C96.6366 94.5365 96.6366 94.5365 96.6366 94.5365C96.6366 94.5365 96.6366 94.5365 96.6366 94.5365C96.6366 94.5365 96.6366 94.5365 96.6366 94.5365C96.6366 94.5365 96.6366 94.5365 96.6366 94.5365C96.6366 94.5365 96.6366 94.5365 96.6366 94.5365C96.6366 94.5365 96.6366 94.5365 96.6366 94.5365C96.6366 94.5365 96.6366 94.5365 96.6366 94.5365C96.6366 94.5365 96.6366 94.5365 96.6366 94.5365C96.6366 94.5365 96.6366 94.5365 96.6366 94.5365C96.6366 94.5365 96.6366 94.5365 96.6366 94.5365C96.6366 94.5365 96.6366 94.5365 96.6366 94.5365C96.6366 94.5365 96.6366 94.5365 96.6366 94.5365C96.6366 94.5365 96.6366 94.5365 96.6366 94.5365C96.6366 94.5365 96.6366 94.5365 96.6366 94.5365C96.6366 94.5365 96.6366 94.5365 96.6366 94.5365C96.6366 94.5365 96.6366 94.5365 96.6366 94.5365C96.6366 94.5365 96.6366 94.5365 96.6366 94.5365C96.6366 94.5365 96.6366 94.5365 96.6366 94.5365C96.6366 94.5365 96.6366 94.5365 96.6366 94.5365C96.6366 94.5365 96.6366 94.5365 96.6366 94.5365C96.6366 94.5365 96.6366 94.5365 96.6366 94.5365C96.6366 94.5365 96.6366 94.5365 96.6366 94.5365C96.6366 94.5365 96.6366 94.5365 96.6366 94.5365C96.6366 94.5365 96.6366 94.5365 96.6366 94.5365C96.6366 94.5365 96.6366 94.5365 96.6366 94.5365C96.6366 94.5365 96.6366 94.5365 96.6366 94.5365C96.6366 94.5365 96.6366 94.5365 96.6366 94.5365C96.6366 94.5365 96.6366 94.5365 96.6366 94.5365C96.6366 94.5365 96.6366 94.5365 96.6366 94.5365C96.6366 94.5365 96.6366 94.5365 96.6366 94.5365C96.6366 94.5365 96.6366 94.5365 96.6366 94.5365C96.6366 94.5365 96.6366 94.5365 96.6366 94.5365C96.6366 94.5365 96.6366 94.5365 96.6366 94.5365C96.6366 94.5365 96.6366 94.5365 96.6366 94.5365C96.6366 94.5365 96.6366 94.5365 96.6366 94.5365C96.6366 94.5365 96.6366 94.5365 96.6366 94.5365C96.6366 94.5365 96.6366 94.5365 96.6366 94.5365C96.6366 94.5365 96.6366 94.5365 96.6366 94.5365C96.6366 94.5365 96.6366 94.5365 96.6366 94.5365C96.6366 94.5365 96.6366 94.5365 96.6366 94.5365C96.6366 94.5365 96.6366 94.5365 96.6366 94.5365C96.6366 94.5365 96.6366 94.5365 96.6366 94.5365C96.6366 94.5365 96.6366 94.5365 96.6366 94.5365C96.6366 94.5365 96.6366 94.5365 96.6366 94.5365C96.6366 94.5365 96.6366 94.5365 96.6366 94.5365C96.6366 94.5365 96.6366 94.5365 96.6366 94.5365C96.6366 94.5365 96.6366 94.5365 96.6366 94.5365C96.6366 94.5365 96.6366 94.5365 96.6366 94.5365C96.6366 94.5365 96.6366 94.5365 96.6366 94.5365C96.6366 94.5365 96.6366 94.5365 96.6366 94.5365C96.6366 94.5365 96.6366 94.5365 96.6366 94.5365C96.6366 94.5365 96.6366 94.5365 96.6366 94.5365C96.6366 94.5365 96.6366 94.5365 96.6366 94.5365C96.6366 94.5365 96.6366 94.5365 96.6366 94.5365C96.6366 94.5365 96.6366 94.5365 96.6366 94.5365C96.6366 94.5365 96.6366 94.5365 96.6366 94.5365C96.6366 94.5365 96.6366 94.5365 96.6366 94.5365C96.6366 94.5365 96.6366 94.5365 96.6366 94.5365C96.6366 94.5365 96.6366 94.5365 96.6366 94.5365C96.6366 94.5365 96.6366 94.5365 96.6366 94.5365C96.6366 94.5365 96.6366 94.5365 96.6366 94.5365C96.6366 94.5365 96.6366 94.5365 96.6366 94.5365C96.6366 94.5365 96.6366 94.5365 96.6366 94.5365C96.6366 94.5365 95.5903 94.832 94.544 91.1275C94.544 91.1275 94.544 91.1275 94.544 91.1275C94.544 91.1275 94.544 91.1275 94.544 91.1275C94.544 91.1275 94.544 91.1275 94.544 91.1275C94.544 91.1275 94.544 91.1275 94.544 91.1275C94.544 91.1275 94.544 91.1275 94.544 91.1275C94.544 91.1275 94.544 91.1275 94.544 91.1275C94.544 91.1275 94.544 91.1275 94.544 91.1275C94.544 91.1275 94.544 91.1275 94.544 91.1275C94.544 91.1275 94.544 91.1275 94.544 91.1275C94.544 91.1275 94.544 91.1275 94.544 91.1275C94.544 91.1275 94.544 91.1275 94.544 91.1275C94.544 91.1275 94.544 91.1275 94.544 91.1275C94.544 91.1275 94.544 91.1275 94.544 91.1275C94.544 91.1275 94.544 91.1275 94.544 91.1275C94.544 91.1275 94.544 91.1275 94.544 91.1275C94.544 91.1275 94.544 91.1275 94.544 91.1275C94.544 91.1275 94.544 91.1275 94.544 91.1275C94.544 91.1275 94.544 91.1275 94.544 91.1275C94.544 91.1275 94.544 91.1275 94.544 91.1275C94.544 91.1275 94.544 91.1275 94.544 91.1275C94.544 91.1275 94.544 91.1275 94.544 91.1275C94.544 91.1275 94.544 91.1275 94.544 91.1275C94.544 91.1275 94.544 91.1275 94.544 91.1275C94.544 91.1275 94.544 91.1275 94.544 91.1275C94.544 91.1275 94.544 91.1275 94.544 91.1275C94.544 91.1275 94.544 91.1275 94.544 91.1275C94.544 91.1275 94.544 91.1275 94.544 91.1275C94.544 91.1275 94.544 91.1275 94.544 91.1275C94.544 91.1275 94.544 91.1275 94.544 91.1275C94.544 91.1275 94.544 91.1275 94.544 91.1275C94.544 91.1275 94.544 91.1275 94.544 91.1275C94.544 91.1275 94.544 91.1275 94.544 91.1275C94.544 91.1275 94.544 91.1275 94.544 91.1275C94.544 91.1275 94.544 91.1275 94.544 91.1275C94.544 91.1275 94.544 91.1275 94.544 91.1275C94.544 91.1275 94.544 91.1275 94.544 91.1275C94.544 91.1275 94.544 91.1275 94.544 91.1275C94.544 91.1275 94.544 91.1275 94.544 91.1275C94.544 91.1275 94.544 91.1275 94.544 91.1275C94.544 91.1275 94.544 91.1275 94.544 91.1275C94.544 91.1275 94.544 91.1275 94.544 91.1275C94.544 91.1275 94.544 91.1275 94.544 91.1275C94.544 91.1275 94.544 91.1275 94.544 91.1275C94.544 91.1275 94.544 91.1275 94.544 91.1275C94.544 91.1275 94.544 91.1275 94.544 91.1275C94.544 91.1275 94.544 91.1275 94.544 91.1275C94.544 91.1275 94.544 91.1275 94.544 91.1275C94.544 91.1275 94.544 91.1275 94.544 91.1275C94.544 91.1275 94.544 91.1275 94.544 91.1275C94.544 91.1275 94.544 91.1275 94.544 91.1275C94.544 91.1275 94.544 91.1275 94.544 91.1275C94.544 91.1275 94.544 91.1275 94.544 91.1275C94.544 91.1275 94.544 91.1275 94.544 91.1275C94.544 91.1275 94.544 91.1275 94.544 91.1275C94.544 91.1275 94.544 91.1275 94.544 91.1275C94.544 91.1275 94.544 91.1275 94.544 91.1275C94.544 91.1275 94.544 91.1275 94.544 91.1275C94.544 91.1275 94.544 91.1275 94.544 91.1275C94.544 91.1275 94.544 91.1275 94.544 91.1275C94.544 91.1275 94.544 91.1275 94.544 91.1275C94.544 91.1275 94.544 91.1275 94.544 91.1275C94.544 91.1275 94.544 91.1275 94.544 91.1275C94.544 91.1275 94.544 91.1275 94.544 91.1275C94.544 91.1275 94.544 91.1275 94.544 91.1275C94.544 91.1275 94.544 91.1275 94.544 91.1275C94.544 91.1275 94.544 91.1275 94.544 91.1275C94.544 91.1275 94.544 91.1275 94.544 91.1275C94.544 91.1275 94.544 91.1275 94.544 91.1275C94.544 91.1275 94.544 91.1275 94.544 91.1275C94.544 91.1275 94.544 91.1275 94.544 91.1275C94.544 91.1275 94.544 91.1275 94.544 91.1275C94.544 91.1275 94.544 91.1275 94.544 91.1275C94.544 91.1275 94.544 91.1275 94.544 91.1275C94.544 91.1275 94.544 91.1275 94.544 91.1275C94.544 91.1275 94.544 91.1275 94.544 91.1275C94.544 91.1275 94.544 91.1275 94.544 91.1275C94.544 91.1275 94.544 91.1275 94.544 91.1275C94.544 91.1275 94.544 91.1275 94.544 91.1275C94.544 91.1275 94.544 91.1275 94.544 91.1275C94.544 91.1275 94.544 91.1275 94.544 91.1275C94.544 91.1275 94.544 91.1275 94.544 91.1275C94.544 91.1275 94.544 91.1275 94.544 91.1275C94.544 91.1275 94.544 91.1275 94.544 91.1275C94.544 91.1275 94.544 91.1275 94.544 91.1275C94.544 91.1275 94.544 91.1275 94.544 91.1275C94.544 91.1275 94.544 91.1275 94.544 91.1275C94.544 91.1275 94.544 91.1275 94.544 91.1275C94.544 91.1275 94.544 91.1275 94.544 91.1275C94.544 91.1275 94.544 91.1275 94.544 91.1275C94.544 91.1275 94.544 91.1275 94.544 91.1275C94.544 91.1275 94.544 91.1275 94.544 91.1275C94.544 91.1275 94.544 91.1275 94.544 91.1275C94.544 91.1275 94.544 91.1275 94.544 91.1275C94.544 91.1275 94.544 91.1275 94.544 91.1275C94.544 91.1275 94.544 91.1275 94.544 91.1275C94.544 91.1275 94.544 91.1275 94.544 91.1275C94.544 91.1275 94.544 91.1275 94.544 91.1275C94.544 91.1275 94.544 91.1275 94.544 91.1275C94.544 91.1275 94.544 91.1275 94.544 91.1275C94.544 91.1275 94.544 91.1275 94.544 91.1275C94.544 91.1275 94.544 91.1275 94.544 91.1275C94.544 91.1275 94.544 91.1275 94.544 91.1275C94.544 91.1275 94.544 91.1275 94.544 91.1275C94.544 91.1275 94.544 91.1275 94.544 91.1275C94.544 91.1275 94.544 91.1275 94.544 91.1275C94.544 91.1275 94.544 91.1275 94.544 91.1275C94.544 91.1275 94.544 91.1275 94.544 91.1275C94.544 91.1275 94.544 91.1275 94.544 91.1275L96.6366 94.5365ZM94.5284 91.1372C93.4681 89.4414 93.4678 89.4416 93.4674 89.4418C93.4673 89.4419 93.4669 89.4421 93.4667 89.4423C93.4662 89.4426 93.4657 89.4429 93.4651 89.4432C93.4641 89.4439 93.4629 89.4446 93.4618 89.4454C93.4594 89.4469 93.4568 89.4485 93.4539 89.4504C93.4481 89.454 93.4413 89.4583 93.4336 89.4633C93.4181 89.4733 93.3987 89.4859 93.3756 89.5013C93.3294 89.532 93.2683 89.5734 93.1941 89.6259C93.0458 89.7308 92.8445 89.8799 92.6042 90.0746C92.1244 90.4634 91.4843 91.038 90.7995 91.8097L93.7913 94.4647C94.3105 93.8797 94.7869 93.4544 95.1226 93.1823C95.29 93.0466 95.4212 92.9501 95.5034 92.8919C95.5445 92.8629 95.5733 92.8435 95.588 92.8337C95.5954 92.8288 95.5993 92.8263 95.5995 92.8262C95.5995 92.8262 95.5987 92.8267 95.5969 92.8278C95.596 92.8284 95.5949 92.8291 95.5935 92.83C95.5928 92.8304 95.5921 92.8309 95.5913 92.8314C95.5909 92.8317 95.5904 92.8319 95.59 92.8322C95.5898 92.8323 95.5894 92.8325 95.5893 92.8326C95.589 92.8328 95.5886 92.833 94.5284 91.1372ZM19 97.1372C19 94.9281 20.7909 93.1372 23 93.1372V89.1372C18.5817 89.1372 15 92.7189 15 97.1372H19ZM19 105.754V97.1372H15V105.754H19ZM23 109.754C20.7909 109.754 19 107.963 19 105.754H15C15 110.172 18.5817 113.754 23 113.754V109.754ZM90.4563 111.189C91.2515 111.96 92.0205 112.534 92.5948 112.919C92.8832 113.111 93.126 113.259 93.3031 113.361C93.3917 113.412 93.4642 113.452 93.5181 113.482C93.545 113.496 93.5673 113.508 93.5847 113.517C93.5934 113.522 93.6009 113.526 93.6071 113.529C93.6102 113.53 93.613 113.532 93.6154 113.533C93.6166 113.534 93.6178 113.534 93.6189 113.535C93.6194 113.535 93.6199 113.535 93.6204 113.536C93.6206 113.536 93.621 113.536 93.6211 113.536C93.6215 113.536 93.6218 113.536 94.5284 111.754C95.4349 109.971 95.4353 109.971 95.4356 109.971C95.4357 109.971 95.436 109.971 95.4362 109.972C95.4367 109.972 95.4371 109.972 95.4374 109.972C95.4382 109.973 95.4389 109.973 95.4395 109.973C95.4407 109.974 95.4416 109.974 95.4422 109.975C95.4434 109.975 95.4434 109.975 95.4422 109.975C95.4399 109.973 95.433 109.97 95.4217 109.964C95.3992 109.951 95.3595 109.93 95.3048 109.898C95.1954 109.835 95.0272 109.733 94.8184 109.594C94.3984 109.313 93.8276 108.887 93.2412 108.318L90.4563 111.189ZM86.6843 101.079C86.1176 105.858 88.4437 109.237 90.4563 111.189L93.2412 108.318C91.7432 106.865 90.2894 104.645 90.6565 101.55L86.6843 101.079ZM90.7995 91.8097C89.1404 93.6792 87.2 96.7303 86.6843 101.079L90.6565 101.55C91.0543 98.1947 92.5381 95.877 93.7913 94.4647L90.7995 91.8097ZM96.3562 108.196C96.3524 108.194 96.349 108.192 96.3462 108.19L94.5267 111.753C94.5277 111.753 94.5282 111.753 94.5283 111.754L96.3562 108.196ZM94.5225 111.751C94.521 111.75 94.5192 111.749 94.5172 111.748C94.5162 111.747 94.5146 111.746 94.5126 111.745C94.5117 111.745 94.5098 111.744 94.5074 111.743C94.5062 111.742 94.5041 111.741 94.5014 111.739C94.5001 111.739 94.493 111.735 94.484 111.73C94.4818 111.729 94.467 111.721 94.4484 111.71C94.4447 111.708 94.4117 111.689 94.3712 111.664C94.3681 111.662 94.2847 111.61 94.1898 111.534C94.1174 111.473 93.8767 111.219 93.7311 111.009C93.4429 109.987 94.4168 108.258 95.3659 107.976C95.6028 107.981 95.9257 108.034 96.013 108.058C96.0578 108.072 96.1292 108.096 96.156 108.106C96.2036 108.125 96.24 108.141 96.2512 108.146C96.2796 108.158 96.3014 108.169 96.3069 108.171C96.3224 108.179 96.3345 108.185 96.3371 108.186C96.3454 108.19 96.3518 108.193 96.3532 108.194C96.3557 108.195 96.3577 108.196 96.3588 108.197C96.3627 108.199 96.3657 108.201 96.3662 108.201C96.3683 108.202 96.3699 108.203 96.3705 108.203L94.514 111.746C94.5151 111.747 94.517 111.748 94.5193 111.749C94.52 111.749 94.523 111.751 94.5269 111.753C94.528 111.753 94.5301 111.754 94.5326 111.756C94.534 111.756 94.5404 111.76 94.5486 111.764C94.5513 111.765 94.5634 111.771 94.5789 111.779C94.5844 111.781 94.6062 111.792 94.6346 111.804C94.6458 111.809 94.6822 111.825 94.7298 111.843C94.7566 111.853 94.828 111.878 94.8728 111.892C94.9601 111.916 95.283 111.969 95.5199 111.973C96.469 111.692 97.4429 109.963 97.1547 108.941C97.009 108.731 96.7684 108.477 96.6959 108.416C96.601 108.34 96.5177 108.288 96.5146 108.286C96.4741 108.261 96.4411 108.242 96.4374 108.24C96.4188 108.229 96.404 108.221 96.4017 108.22C96.3927 108.215 96.3856 108.211 96.3843 108.21C96.3817 108.209 96.3795 108.208 96.3783 108.207C96.3759 108.206 96.374 108.205 96.3731 108.204C96.371 108.203 96.3693 108.202 96.3682 108.202C96.366 108.201 96.3639 108.2 96.362 108.199L94.5225 111.751ZM98.4182 112.686C98.8481 110.892 97.9956 109.038 96.356 108.196L94.5285 111.754L94.5284 111.754L98.4182 112.686ZM94.5284 115.754C96.3784 115.754 97.9871 114.485 98.4182 112.686L94.5284 111.754L94.5284 111.754V115.754ZM23 115.754H94.5284V111.754H23V115.754ZM13 105.754C13 111.276 17.4772 115.754 23 115.754V111.754C19.6863 111.754 17 109.067 17 105.754H13ZM13 97.1372V105.754H17V97.1372H13ZM23 87.1372C17.4772 87.1372 13 91.6144 13 97.1372H17C17 93.8235 19.6863 91.1372 23 91.1372V87.1372ZM94.5284 87.1372H23V91.1372H94.5284V87.1372ZM98.3733 90.0342C97.8813 88.319 96.3127 87.1372 94.5284 87.1372V91.1372L94.5284 91.1372L98.3733 90.0342ZM96.669 94.5162C98.1681 93.5666 98.8631 91.7417 98.3733 90.0342L94.5284 91.1372L94.5285 91.1371L96.669 94.5162ZM96.6608 94.5214C96.662 94.5206 96.6656 94.5184 96.6687 94.5164L94.5288 91.137C94.5289 91.1369 94.5282 91.1373 94.5264 91.1384L96.6608 94.5214ZM96.3727 108.204C96.3774 108.207 96.3763 108.206 96.3698 108.203L94.4535 111.714C94.4778 111.727 94.4966 111.737 94.5093 111.744L96.3727 108.204ZM96.3699 108.203C96.357 108.196 96.3234 108.177 96.2721 108.147L94.2425 111.594C94.3331 111.647 94.4046 111.687 94.4534 111.714L96.3699 108.203ZM96.2722 108.147C96.169 108.086 95.9988 107.981 95.7858 107.832L93.4957 111.112C93.8029 111.326 94.0611 111.487 94.2424 111.594L96.2722 108.147ZM95.7858 107.832C95.3519 107.529 94.7854 107.076 94.2499 106.486L91.2865 109.172C92.0709 110.038 92.8814 110.683 93.4957 111.112L95.7858 107.832ZM94.2499 106.486C93.1978 105.325 92.4015 103.818 92.6426 101.785L88.6704 101.314C88.2535 104.83 89.7156 107.44 91.2865 109.172L94.2499 106.486ZM92.6426 101.785C92.9527 99.1703 94.0278 97.3198 95.0098 96.118L91.9123 93.5871C90.5519 95.2521 89.0875 97.7964 88.6704 101.314L92.6426 101.785ZM95.0098 96.118C95.505 95.5119 95.9729 95.0767 96.2951 94.8075L93.7304 91.7379C93.2464 92.1423 92.5924 92.7548 91.9123 93.5871L95.0098 96.118ZM96.2951 94.8075C96.4552 94.6737 96.5759 94.5838 96.6412 94.537L94.3109 91.2859C94.1719 91.3855 93.9724 91.5357 93.7304 91.7379L96.2951 94.8075ZM96.6412 94.537C96.6738 94.5137 96.692 94.5014 96.6939 94.5002L94.472 91.1741C94.4347 91.1989 94.3803 91.2362 94.3109 91.2859L96.6412 94.537ZM96.7006 94.4957L96.7113 94.4885L94.4759 91.1714L94.4652 91.1786L96.7006 94.4957ZM94.5293 91.1366L94.5272 91.138L96.6558 94.5245L96.6579 94.5232L94.5293 91.1366ZM94.5294 91.1366L94.5281 91.1374L96.6524 94.5267L96.6536 94.5259L94.5294 91.1366ZM94.548 111.764L94.5491 111.764L96.3329 108.184L96.3318 108.183L94.548 111.764ZM94.526 111.752L94.5282 111.754L96.3516 108.193L96.3494 108.192L94.526 111.752ZM23 93.1372H94.5284V89.1372H23V93.1372ZM94.5284 109.754H23V113.754H94.5284V109.754Z" fill="#EF5B62" mask="url(#path-10-outside-1_7_232)"/>
<path d="M35.2451 72.9973H81.867" stroke="#EF5B62" stroke-width="2" stroke-linecap="round" stroke-linejoin="round"/>
<path d="M35.2451 78.1183H60.6947" stroke="#EF5B62" stroke-width="2" stroke-linecap="round" stroke-linejoin="round"/>
<path d="M77.0551 42.7963C76.5028 42.7963 76.0551 43.244 76.0551 43.7963V56.0566C76.0551 57.8384 78.2093 58.7308 79.4693 57.4708L81.1985 55.7417L82.9277 57.4708C84.1876 58.7308 86.3419 57.8384 86.3419 56.0566V43.7963C86.3419 43.244 85.8942 42.7963 85.3419 42.7963H77.0551Z" fill="white" stroke="#EF5B62" stroke-width="2" stroke-linecap="round" stroke-linejoin="round"/>
<path d="M21.558 96.3246H68.1799" stroke="#EF5B62" stroke-width="2" stroke-linecap="round" stroke-linejoin="round"/>
<path d="M21.558 101.446H47.0075" stroke="#EF5B62" stroke-width="2" stroke-linecap="round" stroke-linejoin="round"/>
<path d="M27.546 49.8296H66.6827" stroke="#EF5B62" stroke-width="2" stroke-linecap="round" stroke-linejoin="round"/>
</svg>
