<svg width="128" height="128" viewBox="0 0 128 128" fill="none" xmlns="http://www.w3.org/2000/svg">
<path d="M36.9867 23.2293L26.1176 35.3255C24.9478 36.6275 25.8964 38.6978 27.6464 38.6618L100.6 37.1639C102.351 37.128 103.214 35.0172 101.988 33.7653L90.2672 21.7924C90.074 21.5951 89.8078 21.4864 89.5316 21.4922L38.4324 22.5664C37.8796 22.5781 37.3563 22.818 36.9867 23.2293Z" fill="#EF5B62"/>
<path d="M55.4875 95.6829L24.3101 38.8895L38.1963 24.5744L69.5333 82.6126L55.4875 95.6829Z" fill="white"/>
<path fill-rule="evenodd" clip-rule="evenodd" d="M22.5569 39.8519C22.1344 39.0823 22.2632 38.1271 22.8745 37.4969L36.7608 23.1819C37.2044 22.7245 37.8394 22.5059 38.4705 22.5933C39.1017 22.6807 39.6534 23.0635 39.9562 23.6242L71.2932 81.6624C71.7259 82.4638 71.5626 83.4564 70.8958 84.0768L56.85 97.1471C56.3985 97.5672 55.7785 97.7555 55.1696 97.6575C54.5607 97.5594 54.0311 97.186 53.7344 96.6454L22.5569 39.8519ZM55.4876 95.6829L69.5334 82.6127L38.1963 24.5744L24.3101 38.8895L55.4876 95.6829Z" fill="#EF5B62"/>
<path fill-rule="evenodd" clip-rule="evenodd" d="M36.6983 50.498C37.1807 50.2292 37.7898 50.4024 38.0586 50.8848L49.4442 71.3201C49.713 71.8026 49.5398 72.4116 49.0573 72.6804C48.5749 72.9492 47.9659 72.776 47.6971 72.2935L36.3114 51.8583C36.0426 51.3758 36.2158 50.7668 36.6983 50.498Z" fill="#EF5B62"/>
<path d="M76.556 90.7039L103.69 37.0743L89.6441 23.4853L60.7012 80.3306L76.556 90.7039Z" fill="white"/>
<path fill-rule="evenodd" clip-rule="evenodd" d="M105.474 37.9772C105.87 37.195 105.71 36.2463 105.081 35.6368L91.0347 22.0479C90.5787 21.6067 89.9404 21.4081 89.3146 21.5126C88.6888 21.6172 88.1497 22.0124 87.8618 22.5779L58.9189 79.4232C58.4557 80.3329 58.752 81.4454 59.6062 82.0042L75.4609 92.3775C75.9371 92.689 76.5234 92.783 77.073 92.6359C77.6227 92.4887 78.0836 92.1145 78.3405 91.6068L105.474 37.9772ZM76.5559 90.7039L60.7012 80.3306L89.6441 23.4853L103.69 37.0742L76.5559 90.7039Z" fill="#EF5B62"/>
<path fill-rule="evenodd" clip-rule="evenodd" d="M87.635 36.9013C88.1315 37.1434 88.3377 37.742 88.0956 38.2384L79.9023 55.0431C79.6602 55.5395 79.0616 55.7457 78.5651 55.5037C78.0687 55.2616 77.8625 54.663 78.1045 54.1666L86.2979 37.3619C86.54 36.8655 87.1386 36.6593 87.635 36.9013Z" fill="#EF5B62"/>
<path d="M85.5586 83.7652C85.5586 95.2249 76.2687 104.515 64.8091 104.515C53.3494 104.515 44.0596 95.2249 44.0596 83.7652C44.0596 72.3056 53.3494 63.0157 64.8091 63.0157C76.2687 63.0157 85.5586 72.3056 85.5586 83.7652Z" fill="white"/>
<path fill-rule="evenodd" clip-rule="evenodd" d="M87.5586 83.7652C87.5586 96.3295 77.3733 106.515 64.8091 106.515C52.2449 106.515 42.0596 96.3295 42.0596 83.7652C42.0596 71.201 52.2449 61.0157 64.8091 61.0157C77.3733 61.0157 87.5586 71.201 87.5586 83.7652ZM64.8091 104.515C76.2687 104.515 85.5586 95.2249 85.5586 83.7652C85.5586 72.3056 76.2687 63.0157 64.8091 63.0157C53.3494 63.0157 44.0596 72.3056 44.0596 83.7652C44.0596 95.2249 53.3494 104.515 64.8091 104.515Z" fill="#EF5B62"/>
<path fill-rule="evenodd" clip-rule="evenodd" d="M78.0713 83.7652C78.0713 91.09 72.1334 97.0279 64.8086 97.0279C57.4838 97.0279 51.5459 91.09 51.5459 83.7652C51.5459 76.4404 57.4838 70.5025 64.8086 70.5025C72.1334 70.5025 78.0713 76.4404 78.0713 83.7652ZM64.8086 95.0279C71.0288 95.0279 76.0713 89.9854 76.0713 83.7652C76.0713 77.545 71.0288 72.5025 64.8086 72.5025C58.5884 72.5025 53.5459 77.545 53.5459 83.7652C53.5459 89.9854 58.5884 95.0279 64.8086 95.0279Z" fill="#EF5B62"/>
</svg>
